<?xml version="1.0" encoding="UTF-8" standalone="no"?>
<svg
   xmlns:dc="http://purl.org/dc/elements/1.1/"
   xmlns:cc="http://creativecommons.org/ns#"
   xmlns:rdf="http://www.w3.org/1999/02/22-rdf-syntax-ns#"
   xmlns:svg="http://www.w3.org/2000/svg"
   xmlns="http://www.w3.org/2000/svg"
   xmlns:sodipodi="http://sodipodi.sourceforge.net/DTD/sodipodi-0.dtd"
   xmlns:inkscape="http://www.inkscape.org/namespaces/inkscape"
   width="64px"
   height="64px"
   id="svg2996"
   version="1.1"
   inkscape:version="1.0.1 (3bc2e813f5, 2020-09-07)"
   sodipodi:docname="ic_copy_toolbar_select_text.svg"
   inkscape:export-filename="C:\Users\sq\Desktop\goof\ic_send.png"
   inkscape:export-xdpi="90"
   inkscape:export-ydpi="90">
  <defs
     id="defs2998" />
  <sodipodi:namedview
     id="base"
     pagecolor="#ffffff"
     bordercolor="#666666"
     borderopacity="1"
     inkscape:pageopacity="0"
     inkscape:pageshadow="2"
     inkscape:zoom="8"
     inkscape:cx="34.670087"
     inkscape:cy="31.382301"
     inkscape:current-layer="g1483"
     showgrid="true"
     inkscape:document-units="px"
     inkscape:grid-bbox="true"
     inkscape:snap-bbox="true"
     inkscape:snap-global="true"
     inkscape:window-width="1920"
     inkscape:window-height="1027"
     inkscape:window-x="1358"
     inkscape:window-y="-8"
     inkscape:window-maximized="1"
     inkscape:showpageshadow="true"
     borderlayer="false"
     showguides="true"
     inkscape:guide-bbox="true"
     inkscape:bbox-paths="true"
     inkscape:snap-nodes="true"
     showborder="true"
     inkscape:snap-bbox-edge-midpoints="true"
     inkscape:snap-intersection-paths="true"
     inkscape:object-paths="true"
     inkscape:bbox-nodes="true"
     inkscape:snap-bbox-midpoints="true"
     inkscape:snap-smooth-nodes="true"
     inkscape:snap-midpoints="true"
     inkscape:document-rotation="0">
    <inkscape:grid
       type="xygrid"
       id="grid3015"
       empspacing="8"
       visible="true"
       enabled="true"
       snapvisiblegridlinesonly="true"
       units="px" />
    <sodipodi:guide
       orientation="1,0"
       position="53,32"
       id="guide3039"
       inkscape:locked="false" />
    <sodipodi:guide
       orientation="1,0"
       position="11,21"
       id="guide3041"
       inkscape:locked="false" />
    <sodipodi:guide
       orientation="0,1"
       position="-3,10"
       id="guide3043"
       inkscape:locked="false" />
    <sodipodi:guide
       orientation="0,1"
       position="8,54"
       id="guide3045"
       inkscape:locked="false" />
  </sodipodi:namedview>
  <metadata
     id="metadata3001">
    <rdf:RDF>
      <cc:Work
         rdf:about="">
        <dc:format>image/svg+xml</dc:format>
        <dc:type
           rdf:resource="http://purl.org/dc/dcmitype/StillImage" />
        <dc:title></dc:title>
      </cc:Work>
    </rdf:RDF>
  </metadata>
  <g
     id="g1483"
     inkscape:label="Layer 1 copy"
     inkscape:groupmode="layer"
     style="opacity:1">
    <path
       style="font-variation-settings:normal;opacity:1;vector-effect:none;fill:none;fill-opacity:1;stroke:#000000;stroke-width:4;stroke-linecap:round;stroke-linejoin:round;stroke-miterlimit:4;stroke-dasharray:none;stroke-dashoffset:0;stroke-opacity:1;stop-color:#000000;stop-opacity:1"
       d="m 32,32.978173 c -4.401894,3.423695 -8.314688,5.869191 -8.314688,10.760185 0,4.890993 4.17363,8.378833 8.313016,8.344395 4.139387,-0.03444 8.31636,-3.453402 8.31636,-8.344395 0,-4.890994 -3.912794,-7.33649 -8.314688,-10.760185 z"
       id="path1416"
       sodipodi:nodetypes="czzzc" />
    <path
       style="font-variation-settings:normal;opacity:0.429032;vector-effect:none;fill:none;fill-opacity:1;stroke:#000000;stroke-width:4;stroke-linecap:round;stroke-linejoin:round;stroke-miterlimit:4;stroke-dasharray:none;stroke-dashoffset:0;stroke-opacity:1;stop-color:#000000;stop-opacity:1"
       d="m 144,64 c -9,7 -17,12 -17,22 0,10 8.5333,17.13115 16.99658,17.06074 C 152.45987,102.99033 161,96 161,86 161,76 153,71 144,64 Z"
       id="path1416-3"
       sodipodi:nodetypes="czzzc" />
    <path
       style="color:#000000;font-style:normal;font-variant:normal;font-weight:normal;font-stretch:normal;font-size:medium;line-height:normal;font-family:sans-serif;font-variant-ligatures:normal;font-variant-position:normal;font-variant-caps:normal;font-variant-numeric:normal;font-variant-alternates:normal;font-variant-east-asian:normal;font-feature-settings:normal;font-variation-settings:normal;text-indent:0;text-align:start;text-decoration:none;text-decoration-line:none;text-decoration-style:solid;text-decoration-color:#000000;letter-spacing:normal;word-spacing:normal;text-transform:none;writing-mode:lr-tb;direction:ltr;text-orientation:mixed;dominant-baseline:auto;baseline-shift:baseline;text-anchor:start;white-space:normal;shape-padding:0;shape-margin:0;inline-size:0;clip-rule:nonzero;display:inline;overflow:visible;visibility:visible;opacity:1;isolation:auto;mix-blend-mode:normal;color-interpolation:sRGB;color-interpolation-filters:linearRGB;solid-color:#000000;solid-opacity:1;vector-effect:none;fill:#000000;fill-opacity:1;fill-rule:nonzero;stroke:none;stroke-width:4.14039;stroke-linecap:butt;stroke-linejoin:miter;stroke-miterlimit:4;stroke-dasharray:none;stroke-dashoffset:0;stroke-opacity:1;color-rendering:auto;image-rendering:auto;shape-rendering:auto;text-rendering:auto;enable-background:accumulate;stop-color:#000000;stop-opacity:1"
       d="m 31,17 c -0.664315,0.0076 -0.991009,0.242738 -1,1 v 14 l 2,-1 2,1 V 18 c -0.04432,-0.64698 -0.220586,-1.00518 -1,-1 z"
       id="path1465"
       sodipodi:nodetypes="cccccccc" />
    <g
       aria-label="a b"
       id="text1450"
       style="font-style:normal;font-variant:normal;font-weight:bold;font-stretch:normal;font-size:32px;line-height:1.25;font-family:Consolas;-inkscape-font-specification:'Consolas Bold'">
      <path
         d="m 22.735125,32.014267 -0.09375,-2.078125 q -0.5,0.53125 -1.046875,0.984375 -0.546875,0.4375 -1.203125,0.765625 -0.65625,0.328125 -1.4375,0.5 -0.765625,0.1875 -1.6875,0.1875 -1.21875,0 -2.140625,-0.359375 -0.921875,-0.359375 -1.546875,-1 -0.625,-0.640625 -0.953125,-1.546875 -0.3125,-0.90625 -0.3125,-2 0,-1.125 0.46875,-2.078125 0.484375,-0.953125 1.453125,-1.640625 0.984375,-0.6875 2.4375,-1.078125 1.46875,-0.390625 3.4375,-0.390625 h 2.078125 v -0.953125 q 0,-0.609375 -0.171875,-1.09375 -0.171875,-0.5 -0.5625,-0.84375 -0.375,-0.34375 -0.984375,-0.53125 -0.609375,-0.1875 -1.5,-0.1875 -1.40625,0 -2.78125,0.328125 -1.359375,0.3125 -2.640625,0.890625 v -3.046875 q 1.140625,-0.453125 2.625,-0.75 1.5,-0.296875 3.109375,-0.296875 1.765625,0 3.03125,0.34375 1.265625,0.328125 2.078125,1 0.828125,0.671875 1.21875,1.6875 0.390625,1 0.390625,2.34375 v 10.84375 z M 22.18825,24.998642 h -2.328125 q -0.96875,0 -1.640625,0.1875 -0.671875,0.1875 -1.09375,0.515625 -0.421875,0.328125 -0.625,0.765625 -0.1875,0.421875 -0.1875,0.90625 0,0.96875 0.625,1.484375 0.625,0.5 1.703125,0.5 0.796875,0 1.65625,-0.578125 0.859375,-0.578125 1.890625,-1.65625 z"
         style="font-style:normal;font-variant:normal;font-weight:bold;font-stretch:normal;font-size:32px;font-family:Consolas;-inkscape-font-specification:'Consolas Bold'"
         id="path1457" />
      <path
         d="m 52.282116,23.843544 q 0,2.1875 -0.625,3.78125 -0.609375,1.59375 -1.71875,2.65625 -1.09375,1.046875 -2.59375,1.5625 -1.5,0.5 -3.265625,0.5 -1.734375,0 -3.234375,-0.265625 -1.484375,-0.25 -2.84375,-0.6875 V 9.9841693 h 3.8125 v 5.1874997 l -0.15625,3.125 q 0.859375,-1.109375 2,-1.78125 1.15625,-0.671875 2.765625,-0.671875 1.40625,0 2.5,0.5625 1.09375,0.5625 1.828125,1.609375 0.75,1.03125 1.140625,2.515625 0.390625,1.46875 0.390625,3.3125 z m -4,0.15625 q 0,-1.3125 -0.1875,-2.234375 -0.1875,-0.921875 -0.546875,-1.515625 -0.34375,-0.59375 -0.859375,-0.859375 -0.5,-0.28125 -1.15625,-0.28125 -0.96875,0 -1.859375,0.78125 -0.875,0.78125 -1.859375,2.125 v 6.9375 q 0.453125,0.171875 1.109375,0.28125 0.671875,0.109375 1.359375,0.109375 0.90625,0 1.640625,-0.375 0.75,-0.375 1.265625,-1.0625 0.53125,-0.6875 0.8125,-1.671875 0.28125,-1 0.28125,-2.234375 z"
         style="font-style:normal;font-variant:normal;font-weight:bold;font-stretch:normal;font-size:32px;font-family:Consolas;-inkscape-font-specification:'Consolas Bold'"
         id="path1459" />
    </g>
  </g>
</svg>
