<?xml version="1.0" encoding="UTF-8" standalone="no"?>
<svg
   xmlns:dc="http://purl.org/dc/elements/1.1/"
   xmlns:cc="http://creativecommons.org/ns#"
   xmlns:rdf="http://www.w3.org/1999/02/22-rdf-syntax-ns#"
   xmlns:svg="http://www.w3.org/2000/svg"
   xmlns="http://www.w3.org/2000/svg"
   xmlns:sodipodi="http://sodipodi.sourceforge.net/DTD/sodipodi-0.dtd"
   xmlns:inkscape="http://www.inkscape.org/namespaces/inkscape"
   width="64px"
   height="64px"
   id="svg2996"
   version="1.1"
   inkscape:version="1.0.1 (3bc2e813f5, 2020-09-07)"
   sodipodi:docname="ic_fab_go_to_bottom.svg"
   inkscape:export-filename="C:\Users\sq\Desktop\goof\ic_send.png"
   inkscape:export-xdpi="90"
   inkscape:export-ydpi="90">
  <defs
     id="defs2998" />
  <sodipodi:namedview
     id="base"
     pagecolor="#ffffff"
     bordercolor="#666666"
     borderopacity="1"
     inkscape:pageopacity="0"
     inkscape:pageshadow="2"
     inkscape:zoom="11.313708"
     inkscape:cx="21.160703"
     inkscape:cy="31.016486"
     inkscape:current-layer="layer1"
     showgrid="true"
     inkscape:document-units="px"
     inkscape:grid-bbox="true"
     inkscape:snap-bbox="true"
     inkscape:snap-global="true"
     inkscape:window-width="1302"
     inkscape:window-height="745"
     inkscape:window-x="56"
     inkscape:window-y="-8"
     inkscape:window-maximized="1"
     inkscape:showpageshadow="true"
     borderlayer="false"
     showguides="true"
     inkscape:guide-bbox="true"
     inkscape:bbox-paths="true"
     inkscape:snap-nodes="true"
     showborder="true"
     inkscape:snap-bbox-edge-midpoints="true"
     inkscape:snap-intersection-paths="true"
     inkscape:object-paths="true"
     inkscape:bbox-nodes="true"
     inkscape:snap-bbox-midpoints="true"
     inkscape:snap-smooth-nodes="true"
     inkscape:snap-midpoints="true"
     inkscape:document-rotation="0">
    <inkscape:grid
       type="xygrid"
       id="grid3015"
       empspacing="8"
       visible="true"
       enabled="true"
       snapvisiblegridlinesonly="true"
       units="px" />
    <sodipodi:guide
       orientation="1,0"
       position="53,32"
       id="guide3039"
       inkscape:locked="false" />
    <sodipodi:guide
       orientation="1,0"
       position="11,21"
       id="guide3041"
       inkscape:locked="false" />
    <sodipodi:guide
       orientation="0,1"
       position="-3,10"
       id="guide3043"
       inkscape:locked="false" />
    <sodipodi:guide
       orientation="0,1"
       position="8,54"
       id="guide3045"
       inkscape:locked="false" />
  </sodipodi:namedview>
  <metadata
     id="metadata3001">
    <rdf:RDF>
      <cc:Work
         rdf:about="">
        <dc:format>image/svg+xml</dc:format>
        <dc:type
           rdf:resource="http://purl.org/dc/dcmitype/StillImage" />
        <dc:title></dc:title>
      </cc:Work>
    </rdf:RDF>
  </metadata>
  <g
     id="layer1"
     inkscape:label="Layer 1"
     inkscape:groupmode="layer">
    <path
       id="rect4009-9-9-1"
       style="opacity:1;fill:#000000;fill-opacity:0.8;stroke:none"
       d="m 21.18804,23.275 c 10e-4,-0.1417 0.0421,-0.27274 0.125,-0.34375 1.32643,-1.13615 5.06051,0.79672 8.6875,3.4375 L 30.000253,24.4 v -6 c 0,-0.554 0.446,-1 1,-1 h 2 c 0.554,0 1,0.446 1,1 v 6 l 2.87e-4,1.96875 c 3.62699,-2.64078 7.36107,-4.57365 8.6875,-3.4375 C 44.01447,24.06741 34.35409,34.9 32.00054,34.9 29.79408,34.9 21.16659,25.40044 21.18804,23.275 Z m 0,11.75 c 10e-4,-0.1417 0.0421,-0.27274 0.125,-0.34375 1.32643,-1.13615 5.06051,0.79672 8.6875,3.4375 L 30.000253,36.15 v -6 c 0,-0.554 0.446,-1 1,-1 h 2 c 0.554,0 1,0.446 1,1 v 6 l 2.87e-4,1.96875 c 3.62699,-2.64078 7.36107,-4.57365 8.6875,-3.4375 1.32643,1.13616 -8.33395,11.96875 -10.6875,11.96875 -2.20646,0 -10.83395,-9.49956 -10.8125,-11.625 z" />
  </g>
</svg>
