<?xml version="1.0" encoding="UTF-8" standalone="no"?>
<svg
   xmlns:dc="http://purl.org/dc/elements/1.1/"
   xmlns:cc="http://creativecommons.org/ns#"
   xmlns:rdf="http://www.w3.org/1999/02/22-rdf-syntax-ns#"
   xmlns:svg="http://www.w3.org/2000/svg"
   xmlns="http://www.w3.org/2000/svg"
   xmlns:sodipodi="http://sodipodi.sourceforge.net/DTD/sodipodi-0.dtd"
   xmlns:inkscape="http://www.inkscape.org/namespaces/inkscape"
   width="108"
   height="108"
   version="1.1"
   viewBox="0 0 108 108"
   id="svg33"
   sodipodi:docname="ic_launcher_weechat.svg"
   inkscape:version="0.92.3 (2405546, 2018-03-11)">
  <metadata
     id="metadata37">
    <rdf:RDF>
      <cc:Work
         rdf:about="">
        <dc:format>image/svg+xml</dc:format>
        <dc:type
           rdf:resource="http://purl.org/dc/dcmitype/StillImage" />
        <dc:title />
      </cc:Work>
    </rdf:RDF>
  </metadata>
  <sodipodi:namedview
     pagecolor="#8c8e90"
     bordercolor="#666666"
     borderopacity="1"
     objecttolerance="10"
     gridtolerance="10"
     guidetolerance="10"
     inkscape:pageopacity="0"
     inkscape:pageshadow="2"
     inkscape:window-width="1280"
     inkscape:window-height="971"
     id="namedview35"
     showgrid="false"
     inkscape:zoom="4"
     inkscape:cx="82.392925"
     inkscape:cy="67.507116"
     inkscape:window-x="1358"
     inkscape:window-y="-8"
     inkscape:window-maximized="1"
     inkscape:current-layer="svg33"
     showguides="false" />
  <defs
     id="defs19">
    <linearGradient
       id="linearGradient4219"
       x1="174.15"
       x2="611.88"
       y1="477.17"
       y2="417.74"
       gradientUnits="userSpaceOnUse">
      <stop
         stop-color="#81cd71"
         offset="0"
         id="stop2" />
      <stop
         stop-color="#098c2b"
         offset="1"
         id="stop4" />
    </linearGradient>
    <linearGradient
       id="linearGradient4248"
       x1="347.25"
       x2="347.25"
       y1="691.32"
       y2="461.74"
       gradientUnits="userSpaceOnUse">
      <stop
         stop-color="#0b11bd"
         offset="0"
         id="stop7" />
      <stop
         stop-color="#609fe0"
         offset=".75591"
         id="stop9" />
      <stop
         stop-color="#63a4e1"
         offset="1"
         id="stop11" />
    </linearGradient>
    <linearGradient
       id="linearGradient7198"
       x1="34.898655"
       x2="98.987862"
       y1="55.564808"
       y2="83.206825"
       gradientUnits="userSpaceOnUse">
      <stop
         offset="0"
         id="stop14" />
      <stop
         stop-opacity="0"
         offset="1"
         id="stop16" />
    </linearGradient>
  </defs>
  <g
     id="g23"
     style="display:inline;opacity:0.169">
    <path
       d="m 74.725,37.887 c -6.076,0.01118 -19.135,0.12522 -26.391,0.85547 -9.6738,0.97363 -10.965,6.2183 -12.516,10.248 l 2.832,2.8477 -3.9551,0.14453 c -1.6833,4.5148 -3.9062,10.625 -3.9062,10.625 0,0 -1.6811,3.4054 -0.12305,5.6289 0,0 30.870175,36.64712 50.12869,50.17817 l 28.875,-7.7762 18.33,-22.747 c 0,0 -0.0521,4e-6 -0.0527,0 l -49.945,-49.996 h -0.0039 l 0.0019,-0.0039 c 0,0 -1.25,-0.0076 -3.2754,-0.0039 z"
       id="path21"
       inkscape:connector-curvature="0"
       style="display:inline;opacity:0.125;fill:url(#linearGradient7198);fill-rule:evenodd;stroke-width:0.092008"
       sodipodi:nodetypes="cccccccccccccccc" />
  </g>
  <g
     id="g31"
     style="display:inline">
    <g
       transform="matrix(0.092008,0,0,0.092008,19.796,5.087)"
       id="g29"
       style="fill:#ffffff;fill-opacity:1;fill-rule:evenodd">
      <path
         d="m 597.01,356.49 c -66.038,0.12148 -207.97,1.3562 -286.83,9.293 -105.14,10.582 -119.18,67.592 -136.03,111.39 -0.0965,0.25085 -0.23224,0.6124 -0.33007,0.86719 l 114.45,-5.3984 c 10.47,-36.866 31.895,-41.836 48.088,-44.104 15.525,-2.1738 255.31,-10.127 275.52,-10.795 l 20.721,-61.207 c 0,0 -13.579,-0.0835 -35.592,-0.043 z"
         id="path25"
         inkscape:connector-curvature="0"
         style="fill:#ffffff;fill-opacity:1" />
      <path
         d="m 601.02,449.81 -96.352,4.531 -59.868,167.26 -52.647,2.4758 59.232,-167.23 -104.13,4.8969 -63.367,172.17 c 0,0 -13.296,0.98087 -23.912,1.5938 -26.596,1.5354 -23.617,-21.154 -20.59,-30.555 3.027,-9.401 36.648,-100.64 36.648,-100.64 l -114.1,5.3654 c -18.295,49.07 -42.451,115.48 -42.451,115.48 0,0 -45.059,91.043 71.391,80.783 116.45,-10.26 334.31,-32.125 334.31,-32.125 z"
         id="path27"
         inkscape:connector-curvature="0"
         style="fill:#ffffff;fill-opacity:1" />
    </g>
  </g>
</svg>
