<?xml version="1.0" encoding="UTF-8" standalone="no"?>
<!-- Created with Inkscape (http://www.inkscape.org/) -->

<svg
   xmlns:dc="http://purl.org/dc/elements/1.1/"
   xmlns:cc="http://creativecommons.org/ns#"
   xmlns:rdf="http://www.w3.org/1999/02/22-rdf-syntax-ns#"
   xmlns:svg="http://www.w3.org/2000/svg"
   xmlns="http://www.w3.org/2000/svg"
   xmlns:sodipodi="http://sodipodi.sourceforge.net/DTD/sodipodi-0.dtd"
   xmlns:inkscape="http://www.inkscape.org/namespaces/inkscape"
   width="48px"
   height="48px"
   id="svg4202"
   version="1.1"
   inkscape:version="0.92.3 (2405546, 2018-03-11)"
   sodipodi:docname="ic_notification_uploading_anim6.svg"
   inkscape:export-filename="C:\Users\sq\Desktop\ic_disconnected.png"
   inkscape:export-xdpi="90"
   inkscape:export-ydpi="90">
  <defs
     id="defs4204" />
  <sodipodi:namedview
     id="base"
     pagecolor="#000000"
     bordercolor="#666666"
     borderopacity="1.0"
     inkscape:pageopacity="0"
     inkscape:pageshadow="2"
     inkscape:zoom="31.999999"
     inkscape:cx="34.692415"
     inkscape:cy="39.922012"
     inkscape:current-layer="layer1"
     showgrid="true"
     inkscape:grid-bbox="true"
     inkscape:document-units="px"
     showguides="true"
     inkscape:guide-bbox="true"
     inkscape:window-width="1920"
     inkscape:window-height="1027"
     inkscape:window-x="1358"
     inkscape:window-y="-8"
     inkscape:window-maximized="1"
     inkscape:snap-page="false"
     inkscape:snap-grids="true"
     inkscape:snap-others="true"
     inkscape:snap-global="true"
     inkscape:snap-object-midpoints="true"
     inkscape:snap-center="true"
     inkscape:object-paths="true"
     inkscape:snap-intersection-paths="true"
     inkscape:snap-bbox="true"
     guidecolor="#6060ff"
     guideopacity="0.49803922"
     inkscape:snap-smooth-nodes="true"
     inkscape:snap-midpoints="true"
     inkscape:snap-bbox-edge-midpoints="true"
     inkscape:bbox-nodes="false"
     inkscape:bbox-paths="true">
    <inkscape:grid
       type="xygrid"
       id="grid4228"
       empspacing="8"
       visible="true"
       enabled="true"
       snapvisiblegridlinesonly="true"
       dotted="false"
       color="#9d9dff"
       opacity="0.23921569"
       empcolor="#a1a1ff"
       empopacity="0.48627451" />
  </sodipodi:namedview>
  <metadata
     id="metadata4207">
    <rdf:RDF>
      <cc:Work
         rdf:about="">
        <dc:format>image/svg+xml</dc:format>
        <dc:type
           rdf:resource="http://purl.org/dc/dcmitype/StillImage" />
        <dc:title></dc:title>
      </cc:Work>
    </rdf:RDF>
  </metadata>
  <g
     id="layer1"
     inkscape:label="Layer 1"
     inkscape:groupmode="layer"
     style="display:inline">
    <path
       inkscape:connector-curvature="0"
       style="opacity:1;fill:#ffffff;fill-opacity:0.98989898;stroke:none;stroke-width:1"
       d="m 7.7816806,18.3125 c 0.0015,0.21255 0.06315,0.40911 0.1875,0.515625 1.989645,1.704225 7.5907654,-1.19508 13.0312494,-5.15625 L 21,16.625 v 9 c 0,0.831 0.668998,1.5 1.5,1.5 h 3 c 0.830998,0 1.5,-0.669 1.5,-1.5 v -9 l 4.3e-4,-2.953125 c 5.440484,3.96117 11.041604,6.860475 13.03125,5.15625 C 42.021326,17.123885 27.530754,0.875 24.00043,0.875 20.690741,0.875 7.7495056,15.12434 7.7816806,18.3125 Z"
       id="rect4009-9-9"
       sodipodi:nodetypes="ccccsssscccsc" />
    <path
       style="opacity:1;fill:#ffffff;fill-opacity:1;stroke:none;stroke-width:1"
       d="M 8.5,36 C 7.6713594,36.03315 7.0331454,35.448814 7,34.520737 V 31.5 C 7,30 5.5,30 5.5,30 h -3 C 2.5,30 1.0270615,29.94485 1,31.5 V 36 c 0,3 3,6 6,6 h 34 c 3,0 6,-3 6,-6 V 31.5 C 47,30 45.5,30 45.5,30 h -3 c 0,0 -1.5,0 -1.5,1.5 v 3 c 0,0.726562 -0.714841,1.511719 -1.511716,1.5 z"
       id="rect4009"
       inkscape:connector-curvature="0"
       sodipodi:nodetypes="ccccccccccccccccc" />
  </g>
</svg>
