<?xml version="1.0" encoding="UTF-8" standalone="no"?>
<!-- Created with Inkscape (http://www.inkscape.org/) -->

<svg
   xmlns:dc="http://purl.org/dc/elements/1.1/"
   xmlns:cc="http://creativecommons.org/ns#"
   xmlns:rdf="http://www.w3.org/1999/02/22-rdf-syntax-ns#"
   xmlns:svg="http://www.w3.org/2000/svg"
   xmlns="http://www.w3.org/2000/svg"
   xmlns:xlink="http://www.w3.org/1999/xlink"
   xmlns:sodipodi="http://sodipodi.sourceforge.net/DTD/sodipodi-0.dtd"
   xmlns:inkscape="http://www.inkscape.org/namespaces/inkscape"
   width="48px"
   height="48px"
   id="svg4202"
   version="1.1"
   inkscape:version="0.92.3 (2405546, 2018-03-11)"
   sodipodi:docname="ic_notification_upload_done.svg"
   inkscape:export-filename="C:\Users\sq\Desktop\ic_disconnected.png"
   inkscape:export-xdpi="90"
   inkscape:export-ydpi="90">
  <defs
     id="defs4204" />
  <sodipodi:namedview
     id="base"
     pagecolor="#000000"
     bordercolor="#666666"
     borderopacity="1.0"
     inkscape:pageopacity="0"
     inkscape:pageshadow="2"
     inkscape:zoom="7.9999997"
     inkscape:cx="10.728009"
     inkscape:cy="28.620067"
     inkscape:current-layer="layer1"
     showgrid="true"
     inkscape:grid-bbox="true"
     inkscape:document-units="px"
     showguides="false"
     inkscape:guide-bbox="true"
     inkscape:window-width="1302"
     inkscape:window-height="745"
     inkscape:window-x="56"
     inkscape:window-y="-8"
     inkscape:window-maximized="1"
     inkscape:snap-page="false"
     inkscape:snap-grids="true"
     inkscape:snap-others="true"
     inkscape:snap-global="false"
     inkscape:snap-object-midpoints="false"
     inkscape:snap-center="true"
     inkscape:object-paths="true"
     inkscape:snap-intersection-paths="true"
     inkscape:snap-bbox="true"
     guidecolor="#6060ff"
     guideopacity="0.49803922"
     inkscape:snap-smooth-nodes="true"
     inkscape:snap-midpoints="true"
     inkscape:snap-bbox-edge-midpoints="false"
     inkscape:bbox-nodes="true"
     inkscape:bbox-paths="false">
    <inkscape:grid
       type="xygrid"
       id="grid4228"
       empspacing="8"
       visible="true"
       enabled="true"
       snapvisiblegridlinesonly="true"
       dotted="false"
       color="#9d9dff"
       opacity="0.23921569"
       empcolor="#a1a1ff"
       empopacity="0.48627451"
       spacingx="0.5"
       spacingy="0.5" />
  </sodipodi:namedview>
  <metadata
     id="metadata4207">
    <rdf:RDF>
      <cc:Work
         rdf:about="">
        <dc:format>image/svg+xml</dc:format>
        <dc:type
           rdf:resource="http://purl.org/dc/dcmitype/StillImage" />
        <dc:title />
      </cc:Work>
    </rdf:RDF>
  </metadata>
  <g
     id="layer1"
     inkscape:label="Layer 1"
     inkscape:groupmode="layer"
     style="display:inline">
    <path
       style="opacity:1;fill:#ffffff;fill-opacity:0.98989898;stroke:none;stroke-width:1"
       d="M 57.5,4 C 56.704505,4.0221 56.011049,4.759748 56,5.5 v 14 3 c 0,0.831 0.668998,1.5 1.5,1.5 h 3 22 c 0.831,0 1.5,-0.668998 1.5,-1.5 v -3 C 84,18.669002 83.331,18 82.5,18 H 62 V 5.5 C 62,4.748699 61.26235,4 60.5,4 Z"
       id="rect4009-9-9"
       inkscape:connector-curvature="0"
       sodipodi:nodetypes="cccsscsssscssc" />
    <path
       style="opacity:1;fill:#ffffff;fill-opacity:1;stroke:none;stroke-width:1"
       d="M 8.5,36 C 7.6713594,36.03315 7.0331454,35.448814 7,34.520737 V 31.5 C 7,30 5.5,30 5.5,30 h -3 C 2.5,30 1.0270615,29.94485 1,31.5 V 36 c 0,3 3,6 6,6 h 34 c 3,0 6,-3 6,-6 V 31.5 C 47,30 45.5,30 45.5,30 h -3 c 0,0 -1.5,0 -1.5,1.5 v 3 c 0,0.726562 -0.714841,1.511719 -1.511716,1.5 z"
       id="rect4009"
       inkscape:connector-curvature="0"
       sodipodi:nodetypes="ccccccccccccccccc" />
    <use
       x="0"
       y="0"
       xlink:href="#rect4009-9-9"
       id="use838"
       transform="rotate(-45,46.666815,69.101213)"
       width="100%"
       height="100%" />
  </g>
</svg>
