<?xml version="1.0" encoding="UTF-8" standalone="no"?>
<!-- Created with Inkscape (http://www.inkscape.org/) -->

<svg
   xmlns:dc="http://purl.org/dc/elements/1.1/"
   xmlns:cc="http://creativecommons.org/ns#"
   xmlns:rdf="http://www.w3.org/1999/02/22-rdf-syntax-ns#"
   xmlns:svg="http://www.w3.org/2000/svg"
   xmlns="http://www.w3.org/2000/svg"
   xmlns:xlink="http://www.w3.org/1999/xlink"
   xmlns:sodipodi="http://sodipodi.sourceforge.net/DTD/sodipodi-0.dtd"
   xmlns:inkscape="http://www.inkscape.org/namespaces/inkscape"
   width="48px"
   height="48px"
   id="svg4202"
   version="1.1"
   inkscape:version="0.92.3 (2405546, 2018-03-11)"
   sodipodi:docname="ic_notification_upload_cancelled.svg"
   inkscape:export-filename="C:\Users\sq\Desktop\ic_disconnected.png"
   inkscape:export-xdpi="90"
   inkscape:export-ydpi="90">
  <defs
     id="defs4204" />
  <sodipodi:namedview
     id="base"
     pagecolor="#000000"
     bordercolor="#666666"
     borderopacity="1.0"
     inkscape:pageopacity="0"
     inkscape:pageshadow="2"
     inkscape:zoom="15.999999"
     inkscape:cx="36.637457"
     inkscape:cy="28.284195"
     inkscape:current-layer="layer1"
     showgrid="true"
     inkscape:grid-bbox="true"
     inkscape:document-units="px"
     showguides="false"
     inkscape:guide-bbox="true"
     inkscape:window-width="1920"
     inkscape:window-height="1027"
     inkscape:window-x="1358"
     inkscape:window-y="-8"
     inkscape:window-maximized="1"
     inkscape:snap-page="false"
     inkscape:snap-grids="true"
     inkscape:snap-others="true"
     inkscape:snap-global="true"
     inkscape:snap-object-midpoints="false"
     inkscape:snap-center="true"
     inkscape:object-paths="true"
     inkscape:snap-intersection-paths="true"
     inkscape:snap-bbox="true"
     guidecolor="#6060ff"
     guideopacity="0.49803922"
     inkscape:snap-smooth-nodes="true"
     inkscape:snap-midpoints="true"
     inkscape:snap-bbox-edge-midpoints="false"
     inkscape:bbox-nodes="true"
     inkscape:bbox-paths="false">
    <inkscape:grid
       type="xygrid"
       id="grid4228"
       empspacing="8"
       visible="true"
       enabled="true"
       snapvisiblegridlinesonly="true"
       dotted="false"
       color="#9d9dff"
       opacity="0.23921569"
       empcolor="#a1a1ff"
       empopacity="0.48627451"
       spacingx="0.5"
       spacingy="0.5" />
  </sodipodi:namedview>
  <metadata
     id="metadata4207">
    <rdf:RDF>
      <cc:Work
         rdf:about="">
        <dc:format>image/svg+xml</dc:format>
        <dc:type
           rdf:resource="http://purl.org/dc/dcmitype/StillImage" />
        <dc:title></dc:title>
      </cc:Work>
    </rdf:RDF>
  </metadata>
  <g
     id="layer1"
     inkscape:label="Layer 1"
     inkscape:groupmode="layer"
     style="display:inline">
    <path
       style="opacity:1;fill:#ffffff;fill-opacity:0.98989898;stroke:none;stroke-width:1"
       d="M 68.5 6 C 67.669 6 67 6.668998 67 7.5 L 67 17 L 57.5 17 C 56.704505 17.0221 56.011049 17.759748 56 18.5 L 56 21.5 C 56 22.331 56.668998 23 57.5 23 L 67 23 L 67 32.5 C 67 33.331 67.668998 34 68.5 34 L 71.5 34 C 72.330998 34 73 33.331 73 32.5 L 73 23 L 82.5 23 C 83.331 23 84 22.331002 84 21.5 L 84 18.5 C 84 17.669002 83.331 17 82.5 17 L 73 17 L 73 7.5 C 72.9779 6.704505 72.240252 6.011049 71.5 6 L 68.5 6 z "
       id="rect4009-9-9" />
    <path
       style="opacity:1;fill:#ffffff;fill-opacity:1;stroke:none;stroke-width:1"
       d="M 8.5,36 C 7.6713594,36.03315 7.0331454,35.448814 7,34.520737 V 31.5 C 7,30 5.5,30 5.5,30 h -3 C 2.5,30 1.0270615,29.94485 1,31.5 V 36 c 0,3 3,6 6,6 h 34 c 3,0 6,-3 6,-6 V 31.5 C 47,30 45.5,30 45.5,30 h -3 c 0,0 -1.5,0 -1.5,1.5 v 3 c 0,0.726562 -0.714841,1.511719 -1.511716,1.5 z"
       id="rect4009"
       inkscape:connector-curvature="0"
       sodipodi:nodetypes="ccccccccccccccccc" />
    <use
       x="0"
       y="0"
       xlink:href="#rect4009-9-9"
       id="use838"
       transform="rotate(-45,45.189339,74.776912)"
       width="100%"
       height="100%" />
  </g>
</svg>
