<?xml version="1.0" encoding="UTF-8" standalone="no"?>
<svg
   xmlns:dc="http://purl.org/dc/elements/1.1/"
   xmlns:cc="http://creativecommons.org/ns#"
   xmlns:rdf="http://www.w3.org/1999/02/22-rdf-syntax-ns#"
   xmlns:svg="http://www.w3.org/2000/svg"
   xmlns="http://www.w3.org/2000/svg"
   xmlns:sodipodi="http://sodipodi.sourceforge.net/DTD/sodipodi-0.dtd"
   xmlns:inkscape="http://www.inkscape.org/namespaces/inkscape"
   width="64px"
   height="64px"
   id="svg2996"
   version="1.1"
   inkscape:version="1.0.1 (3bc2e813f5, 2020-09-07)"
   sodipodi:docname="ic_paperclip.svg"
   inkscape:export-filename="C:\Users\sq\Desktop\goof\ic_tab.png"
   inkscape:export-xdpi="90"
   inkscape:export-ydpi="90">
  <defs
     id="defs2998" />
  <sodipodi:namedview
     id="base"
     pagecolor="#1b1f22"
     bordercolor="#666666"
     borderopacity="1"
     inkscape:pageopacity="0"
     inkscape:pageshadow="2"
     inkscape:zoom="7.4143271"
     inkscape:cx="39.356041"
     inkscape:cy="26.394094"
     inkscape:current-layer="layer1"
     showgrid="true"
     inkscape:document-units="px"
     inkscape:grid-bbox="true"
     inkscape:snap-bbox="true"
     inkscape:snap-global="false"
     inkscape:window-width="1920"
     inkscape:window-height="1027"
     inkscape:window-x="1358"
     inkscape:window-y="-8"
     inkscape:window-maximized="1"
     inkscape:showpageshadow="true"
     borderlayer="false"
     showguides="true"
     inkscape:guide-bbox="true"
     inkscape:bbox-paths="true"
     inkscape:snap-nodes="true"
     showborder="true"
     inkscape:document-rotation="0"
     inkscape:bbox-nodes="true"
     inkscape:snap-bbox-edge-midpoints="true"
     inkscape:snap-object-midpoints="true"
     inkscape:snap-center="true"
     inkscape:snap-page="true"
     inkscape:snap-text-baseline="true"
     inkscape:object-paths="true"
     inkscape:snap-intersection-paths="true"
     inkscape:snap-smooth-nodes="true"
     inkscape:snap-midpoints="true"
     inkscape:snap-bbox-midpoints="true"
     guidecolor="#c6c4ff"
     guideopacity="0.54901961">
    <inkscape:grid
       type="xygrid"
       id="grid3015"
       empspacing="8"
       visible="true"
       enabled="true"
       snapvisiblegridlinesonly="true"
       units="px"
       color="#a6a8ac"
       opacity="0.14117647"
       empcolor="#bbacb3"
       empopacity="0.23137255" />
    <sodipodi:guide
       orientation="1,0"
       position="53,32"
       id="guide3039" />
    <sodipodi:guide
       orientation="1,0"
       position="11,21"
       id="guide3041" />
    <sodipodi:guide
       orientation="0,1"
       position="-3,10"
       id="guide3043" />
    <sodipodi:guide
       orientation="0,1"
       position="8,54"
       id="guide3045" />
  </sodipodi:namedview>
  <metadata
     id="metadata3001">
    <rdf:RDF>
      <cc:Work
         rdf:about="">
        <dc:format>image/svg+xml</dc:format>
        <dc:type
           rdf:resource="http://purl.org/dc/dcmitype/StillImage" />
        <dc:title />
      </cc:Work>
    </rdf:RDF>
  </metadata>
  <g
     id="layer1"
     inkscape:label="Layer 1"
     inkscape:groupmode="layer">
    <path
       style="color:#000000;font-style:normal;font-variant:normal;font-weight:normal;font-stretch:normal;font-size:medium;line-height:normal;font-family:sans-serif;font-variant-ligatures:normal;font-variant-position:normal;font-variant-caps:normal;font-variant-numeric:normal;font-variant-alternates:normal;font-variant-east-asian:normal;font-feature-settings:normal;font-variation-settings:normal;text-indent:0;text-align:start;text-decoration:none;text-decoration-line:none;text-decoration-style:solid;text-decoration-color:#000000;letter-spacing:normal;word-spacing:normal;text-transform:none;writing-mode:lr-tb;direction:ltr;text-orientation:mixed;dominant-baseline:auto;baseline-shift:baseline;text-anchor:start;white-space:normal;shape-padding:0;shape-margin:0;inline-size:0;clip-rule:nonzero;display:inline;overflow:visible;visibility:visible;isolation:auto;mix-blend-mode:normal;color-interpolation:sRGB;color-interpolation-filters:linearRGB;solid-color:#000000;solid-opacity:1;vector-effect:none;fill:#ffffff;fill-opacity:0.8;fill-rule:nonzero;stroke:none;stroke-width:4;stroke-linecap:round;stroke-linejoin:miter;stroke-miterlimit:4;stroke-dasharray:none;stroke-dashoffset:0;stroke-opacity:1;color-rendering:auto;image-rendering:auto;shape-rendering:auto;text-rendering:auto;enable-background:accumulate;stop-color:#000000"
       d="m 15.735122,15.703398 c -3.711621,3.093722 -5.202156,9.377234 -1.27879,14.0842 l 11.52487,13.826693 c 6.331564,7.596143 15.301238,7.424423 20.678286,2.942528 5.377045,-4.481893 7.161465,-13.273958 0.829873,-20.870104 l -7.203043,-8.641682 c -0.330905,-0.396986 -0.970631,-0.488401 -1.40842,-0.12788 -0.05347,0.04409 -1.481601,1.234948 -1.536299,1.280541 -0.427583,0.356406 -0.478888,0.987307 -0.12788,1.408421 l 7.203043,8.64168 c 5.193328,6.230544 3.522386,12.035069 -0.318364,15.236422 -3.840749,3.201354 -9.851301,3.799533 -15.044607,-2.431013 L 17.528929,27.226517 c -2.479338,-2.974529 -1.314856,-6.715015 0.767274,-8.45052 2.082132,-1.735505 5.971182,-2.207255 8.450521,0.767272 l 10.244328,12.290394 c 0.458859,0.55051 0.485979,0.89704 0.408519,1.319834 -0.07747,0.422795 -0.376258,0.931474 -0.824341,1.304968 -0.448088,0.373492 -1.002265,0.575778 -1.432099,0.575827 -0.429836,4e-5 -0.765816,-0.08904 -1.224677,-0.639548 l -5.922503,-7.105382 c -0.328688,-0.394331 -0.986552,-0.479518 -1.408419,-0.12788 l -1.5363,1.280538 c -0.420171,0.350221 -0.480169,0.985764 -0.127881,1.40842 l 5.922502,7.105384 c 1.141817,1.369865 2.774493,2.080788 4.29722,2.080616 1.52273,-1.66e-4 2.905022,-0.598329 3.993234,-1.50538 1.088211,-0.90705 1.92555,-2.159004 2.199972,-3.656801 0.274424,-1.497797 -0.130814,-3.231815 -1.272632,-4.601683 L 29.819322,16.982188 c -3.923366,-4.706965 -10.372578,-4.372512 -14.0842,-1.27879 z"
       id="use51"
       sodipodi:nodetypes="sssssssssssssssssssssssssssssss" />
  </g>
</svg>
