<?xml version="1.0" encoding="UTF-8" standalone="no"?>
<svg
   xmlns:dc="http://purl.org/dc/elements/1.1/"
   xmlns:cc="http://creativecommons.org/ns#"
   xmlns:rdf="http://www.w3.org/1999/02/22-rdf-syntax-ns#"
   xmlns:svg="http://www.w3.org/2000/svg"
   xmlns="http://www.w3.org/2000/svg"
   style="fill:#000000"
   version="1.1"
   id="svg2"
   width="26"
   viewBox="0 0 26 32"
   height="32">
  <metadata
     id="metadata12">
    <rdf:RDF>
      <cc:Work
         rdf:about="">
        <dc:format>image/svg+xml</dc:format>
        <dc:type
           rdf:resource="http://purl.org/dc/dcmitype/StillImage" />
        <dc:title></dc:title>
      </cc:Work>
    </rdf:RDF>
  </metadata>
  <defs
     id="defs10" />
  <path
     style="fill:#ffffff;fill-opacity:0.8"
     id="path4"
     d="m 23.984216,6.7796715 -4.212986,0 c -0.423314,-1.1691538 -1.531994,-2.015782 -2.842253,-2.015782 -1.310259,0 -2.41894,0.8466282 -2.842254,2.015782 l -4.2129861,0 c -1.1086806,0 -2.0157829,0.9071024 -2.0157829,2.0157836 l 0,16.1262599 c 0,1.108682 0.9071023,2.015785 2.0157829,2.015785 l 14.1104791,0 C 25.092897,26.9375 26,26.030397 26,24.921715 L 26,8.7954551 C 26,7.6867739 25.092897,6.7796715 23.984216,6.7796715 Z m -7.055239,0 c 0.55434,0 1.007891,0.4535513 1.007891,1.0078919 0,0.5543406 -0.453551,1.0078917 -1.007891,1.0078917 -0.55434,0 -1.007892,-0.4535511 -1.007892,-1.0078917 0,-0.5543406 0.453552,-1.0078919 1.007892,-1.0078919 z m 7.055239,18.1420435 -14.1104791,0 0,-16.1262599 2.0157831,0 0,3.0236749 10.078914,0 0,-3.0236749 2.015782,0 0,16.1262599 z" />
  <path
     style="fill:none"
     id="path6"
     d="M 0,8 24,8 24,32 0,32 Z" />
</svg>
