<?xml version="1.0" encoding="UTF-8" standalone="no"?>
<svg
   xmlns:dc="http://purl.org/dc/elements/1.1/"
   xmlns:cc="http://creativecommons.org/ns#"
   xmlns:rdf="http://www.w3.org/1999/02/22-rdf-syntax-ns#"
   xmlns:svg="http://www.w3.org/2000/svg"
   xmlns="http://www.w3.org/2000/svg"
   xmlns:sodipodi="http://sodipodi.sourceforge.net/DTD/sodipodi-0.dtd"
   xmlns:inkscape="http://www.inkscape.org/namespaces/inkscape"
   width="64"
   height="64"
   version="1.1"
   id="svg4"
   sodipodi:docname="ic_paperclip.svg"
   inkscape:version="1.0.1 (3bc2e813f5, 2020-09-07)">
  <metadata
     id="metadata10">
    <rdf:RDF>
      <cc:Work
         rdf:about="">
        <dc:format>image/svg+xml</dc:format>
        <dc:type
           rdf:resource="http://purl.org/dc/dcmitype/StillImage" />
      </cc:Work>
    </rdf:RDF>
  </metadata>
  <defs
     id="defs8" />
  <sodipodi:namedview
     pagecolor="#ffffff"
     bordercolor="#666666"
     borderopacity="1"
     objecttolerance="10"
     gridtolerance="10"
     guidetolerance="10"
     inkscape:pageopacity="0"
     inkscape:pageshadow="2"
     inkscape:window-width="1303"
     inkscape:window-height="745"
     id="namedview6"
     showgrid="false"
     inkscape:zoom="9.03125"
     inkscape:cx="32"
     inkscape:cy="23.141869"
     inkscape:window-x="55"
     inkscape:window-y="-8"
     inkscape:window-maximized="1"
     inkscape:current-layer="svg4" />
  <path
     style="line-height:normal;font-variant-ligatures:normal;font-variant-position:normal;font-variant-caps:normal;font-variant-numeric:normal;font-variant-alternates:normal;font-variant-east-asian:normal;font-feature-settings:normal;font-variation-settings:normal;text-indent:0;text-align:start;text-decoration-line:none;text-decoration-style:solid;text-decoration-color:#000;text-transform:none;text-orientation:mixed;white-space:normal;shape-padding:0;shape-margin:0;inline-size:0;isolation:auto;mix-blend-mode:normal;solid-color:#000;solid-opacity:1;fill:#000000"
     d="M24.1 13.33c-2.37-1.4-5.2-1.58-5.86-1-.64.55.09 3.97.93 6.13A13.27 13.27 0 0018 24c0 5.8 2 5.72 2 13 0 9.89 7 15.52 14 15.52S48 46.89 48 37c.03-1.98.05-2.81.8-3.61.33-.35 1.58-.76 1.5-2.27-.13-2.02-3.95-.9-5.14.73C44.19 33.17 44 34.4 44 37c0 8.11-5 11.52-10 11.52S24 45.12 24 37c0-8.13-1.94-8-2-13 .21-5.84 3.92-8 8-8 4.94 0 7.95 3.2 8 8 0 2.23-.4 3.38-.91 5.04-1.18 4.03-1.1 5.04-1.09 9.96 0 2.37-4 2.35-4 0v-5c0-1.04-.4-2.03-1.17-2.55-.84-.55-2.5-.95-3-.09-.37.62.17 1.76.17 3.16V39c-.01 7.55 11.96 7.79 12 0-.05-4.92.07-6.12.91-8.79.5-1.6 1.09-3.44 1.09-6.21 0-1.9-.38-3.81-1.19-5.56.85-2.29 1.57-5.46.92-6.07-.66-.63-3.4-.45-5.77 1a13.62 13.62 0 00-11.85-.04z"
     color="#000"
     font-weight="400"
     font-family="sans-serif"
     overflow="visible"
     fill="#fff"
     id="path2" />
</svg>
