<?xml version="1.0" encoding="UTF-8" standalone="no"?>
<!-- Created with Inkscape (http://www.inkscape.org/) -->

<svg
   xmlns:dc="http://purl.org/dc/elements/1.1/"
   xmlns:cc="http://creativecommons.org/ns#"
   xmlns:rdf="http://www.w3.org/1999/02/22-rdf-syntax-ns#"
   xmlns:svg="http://www.w3.org/2000/svg"
   xmlns="http://www.w3.org/2000/svg"
   xmlns:sodipodi="http://sodipodi.sourceforge.net/DTD/sodipodi-0.dtd"
   xmlns:inkscape="http://www.inkscape.org/namespaces/inkscape"
   width="64px"
   height="64px"
   id="svg2996"
   version="1.1"
   inkscape:version="0.92.3 (2405546, 2018-03-11)"
   sodipodi:docname="ic_toolbar_upload.svg"
   inkscape:export-filename="C:\Users\sq\Desktop\goof\ic_send.png"
   inkscape:export-xdpi="90"
   inkscape:export-ydpi="90">
  <defs
     id="defs2998" />
  <sodipodi:namedview
     id="base"
     pagecolor="#1b1f22"
     bordercolor="#666666"
     borderopacity="1"
     inkscape:pageopacity="0"
     inkscape:pageshadow="2"
     inkscape:zoom="5.656854"
     inkscape:cx="21.01058"
     inkscape:cy="17.481769"
     inkscape:current-layer="layer1"
     showgrid="true"
     inkscape:document-units="px"
     inkscape:grid-bbox="true"
     inkscape:snap-bbox="true"
     inkscape:snap-global="true"
     inkscape:window-width="1920"
     inkscape:window-height="1027"
     inkscape:window-x="1358"
     inkscape:window-y="-8"
     inkscape:window-maximized="1"
     inkscape:showpageshadow="true"
     borderlayer="false"
     showguides="true"
     inkscape:guide-bbox="true"
     inkscape:bbox-paths="true"
     inkscape:snap-nodes="true"
     showborder="true"
     inkscape:snap-bbox-edge-midpoints="true"
     inkscape:snap-intersection-paths="true"
     inkscape:object-paths="true"
     inkscape:bbox-nodes="true"
     inkscape:snap-bbox-midpoints="true"
     inkscape:snap-smooth-nodes="true"
     inkscape:snap-midpoints="true">
    <inkscape:grid
       type="xygrid"
       id="grid3015"
       empspacing="8"
       visible="true"
       enabled="true"
       snapvisiblegridlinesonly="true"
       units="px" />
    <sodipodi:guide
       orientation="1,0"
       position="53,32"
       id="guide3039"
       inkscape:locked="false" />
    <sodipodi:guide
       orientation="1,0"
       position="11,21"
       id="guide3041"
       inkscape:locked="false" />
    <sodipodi:guide
       orientation="0,1"
       position="-3,10"
       id="guide3043"
       inkscape:locked="false" />
    <sodipodi:guide
       orientation="0,1"
       position="8,54"
       id="guide3045"
       inkscape:locked="false" />
  </sodipodi:namedview>
  <metadata
     id="metadata3001">
    <rdf:RDF>
      <cc:Work
         rdf:about="">
        <dc:format>image/svg+xml</dc:format>
        <dc:type
           rdf:resource="http://purl.org/dc/dcmitype/StillImage" />
        <dc:title></dc:title>
      </cc:Work>
    </rdf:RDF>
  </metadata>
  <g
     id="layer1"
     inkscape:label="Layer 1"
     inkscape:groupmode="layer">
    <path
       style="opacity:1;fill:#ffffff;fill-opacity:0.8;stroke:none"
       d="M 30,39 H 16 c -0.552427,0.0221 -0.977903,-0.367457 -1,-0.986175 V 36 c 0,-1 -1,-1 -1,-1 h -2 c 0,0 -0.981959,-0.03677 -1,1 v 3 c 0,2 2,4 4,4 h 34 c 2,0 4,-2 4,-4 v -3 c 0,-1 -1,-1 -1,-1 h -2 c 0,0 -1,0 -1,1 v 2 c 0,0.484375 -0.47656,1.007813 -1.00781,1 H 34 Z"
       id="rect4009"
       inkscape:connector-curvature="0"
       sodipodi:nodetypes="ccccccccccccccccccc" />
    <path
       inkscape:connector-curvature="0"
       style="opacity:1;fill:#ffffff;fill-opacity:0.8;stroke:none"
       d="m 21.187787,29.125 c 0.001,0.1417 0.0421,0.27274 0.125,0.34375 1.32643,1.13615 5.06051,-0.79672 8.6875,-3.4375 L 30,28 v 6 c 0,0.554 0.446,1 1,1 h 2 c 0.554,0 1,-0.446 1,-1 v -6 l 2.87e-4,-1.96875 c 3.62699,2.64078 7.36107,4.57365 8.6875,3.4375 C 44.014217,28.33259 34.353837,17.5 32.000287,17.5 c -2.20646,0 -10.83395,9.49956 -10.8125,11.625 z"
       id="rect4009-9-9"
       sodipodi:nodetypes="ccccsssscccsc" />
  </g>
</svg>
