<?xml version="1.0" encoding="UTF-8" standalone="no"?>
<svg
   xmlns:dc="http://purl.org/dc/elements/1.1/"
   xmlns:cc="http://creativecommons.org/ns#"
   xmlns:rdf="http://www.w3.org/1999/02/22-rdf-syntax-ns#"
   xmlns:svg="http://www.w3.org/2000/svg"
   xmlns="http://www.w3.org/2000/svg"
   xmlns:sodipodi="http://sodipodi.sourceforge.net/DTD/sodipodi-0.dtd"
   xmlns:inkscape="http://www.inkscape.org/namespaces/inkscape"
   width="64px"
   height="64px"
   id="svg2996"
   version="1.1"
   inkscape:version="1.0.1 (3bc2e813f5, 2020-09-07)"
   sodipodi:docname="ic_toolbar_bell.svg"
   inkscape:export-filename="C:\Users\sq\Desktop\goof\ic_bell.png"
   inkscape:export-xdpi="90"
   inkscape:export-ydpi="90">
  <defs
     id="defs2998" />
  <sodipodi:namedview
     id="base"
     pagecolor="#ffffff"
     bordercolor="#666666"
     borderopacity="1.0"
     inkscape:pageopacity="1"
     inkscape:pageshadow="2"
     inkscape:zoom="5.6568543"
     inkscape:cx="10.220293"
     inkscape:cy="45.630489"
     inkscape:current-layer="g974"
     showgrid="true"
     inkscape:document-units="px"
     inkscape:grid-bbox="true"
     inkscape:snap-bbox="true"
     inkscape:snap-global="false"
     inkscape:window-width="1303"
     inkscape:window-height="745"
     inkscape:window-x="55"
     inkscape:window-y="-8"
     inkscape:window-maximized="1"
     inkscape:showpageshadow="true"
     borderlayer="false"
     showguides="true"
     inkscape:guide-bbox="true"
     inkscape:bbox-paths="false"
     inkscape:snap-nodes="true"
     inkscape:document-rotation="0"
     inkscape:snap-bbox-edge-midpoints="true"
     inkscape:bbox-nodes="true"
     inkscape:snap-bbox-midpoints="true"
     inkscape:snap-object-midpoints="true"
     inkscape:snap-center="true">
    <inkscape:grid
       type="xygrid"
       id="grid3015"
       empspacing="8"
       visible="true"
       enabled="true"
       snapvisiblegridlinesonly="true"
       units="px" />
    <sodipodi:guide
       orientation="1,0"
       position="53,32"
       id="guide3039" />
    <sodipodi:guide
       orientation="1,0"
       position="11,21"
       id="guide3041" />
    <sodipodi:guide
       orientation="0,1"
       position="-3,10"
       id="guide3043" />
    <sodipodi:guide
       orientation="0,1"
       position="8,54"
       id="guide3045" />
  </sodipodi:namedview>
  <metadata
     id="metadata3001">
    <rdf:RDF>
      <cc:Work
         rdf:about="">
        <dc:format>image/svg+xml</dc:format>
        <dc:type
           rdf:resource="http://purl.org/dc/dcmitype/StillImage" />
        <dc:title></dc:title>
      </cc:Work>
    </rdf:RDF>
  </metadata>
  <g
     id="g974"
     inkscape:label="dark copy"
     inkscape:groupmode="layer"
     style="display:none;opacity:1">
    <path
       id="path972"
       style="opacity:1;fill:#000000;fill-opacity:1;stroke:none"
       d="m 32,10.220971 c -16,0 -15,15 -17,21 -2,6 -4,6.587636 -4,10 0,2.135903 5.658181,3.783594 12.39725,4.544807 0.295068,4.492587 3.809222,8.07039 8.603363,8.07039 4.927708,0 8.123604,-3.733916 8.461245,-8.069165 C 47.267195,45.014197 53,43.374972 53,41.220971 c 0,-3.412364 -2,-4 -4,-10 -2,-6 -1,-21 -17,-21 z m 0.507812,4.003906 c 1.157388,0.02646 2.312759,0.159347 3.433594,0.453125 2.345803,0.539185 4.404894,2.09017 5.53711,4.21875 2.454458,4.33223 2.298236,9.490971 3.916015,14.105469 0.582422,1.82995 1.429306,3.550945 2.345703,5.232422 0.641863,1.425738 0.479091,1.86966 -0.925781,2.246094 -7.371931,1.816555 -15.082022,2.128143 -22.613281,1.269531 -2.553881,-0.33184 -5.138692,-0.680399 -7.607422,-1.433594 -1.003053,-0.280563 -0.837387,-1.120113 -0.546875,-1.673828 1.531863,-2.797533 2.835644,-5.742176 3.458984,-8.882813 0.799169,-3.931374 1.203224,-8.127921 3.457032,-11.5625 1.751053,-2.823299 5.21908,-3.934533 8.388671,-3.964843 0.384977,-0.01276 0.770455,-0.01664 1.15625,-0.0078 z m 3.969248,31.856311 c -0.14896,2.155034 -1.506661,4.061526 -4.471928,4.121591 -3.073432,0.06226 -4.526053,-1.643337 -4.69558,-4.082031 3.281099,0.191417 6.382252,0.112783 9.167508,-0.03956 z"
       sodipodi:nodetypes="ssscscssscccccccccccccccscc" />
  </g>
  <g
     id="layer1"
     inkscape:label="light"
     inkscape:groupmode="layer"
     style="display:none;opacity:1">
    <path
       id="path3019-8"
       style="opacity:1;fill:#000000;fill-opacity:1;stroke:none"
       d="m 32,10.441942 c -16,0 -15,15 -17,21 -2,6 -4,6.587636 -4,10 0,2.135903 6.192572,3.748553 12.931641,4.509766 0.272709,4.152157 3.768819,7.490234 7.984375,7.490234 4.208958,0 7.700046,-3.327599 7.982422,-7.470703 C 46.703775,45.218433 53,43.595943 53,41.441942 c 0,-3.412364 -2,-4 -4,-10 -2,-6 -1,-21 -17,-21 z m 0.507812,4.003906 c 1.157388,0.02646 2.312759,0.159347 3.433594,0.453125 2.345803,0.539185 4.404894,2.09017 5.53711,4.21875 2.454458,4.33223 2.298236,9.490971 3.916015,14.105469 0.582422,1.82995 1.429306,3.550945 2.345703,5.232422 0.641863,1.425738 0.479091,1.86966 -0.925781,2.246094 -7.371931,1.816555 -15.082022,2.128143 -22.613281,1.269531 -2.553881,-0.33184 -5.138692,-0.680399 -7.607422,-1.433594 -1.003053,-0.280563 -0.837387,-1.120113 -0.546875,-1.673828 1.531863,-2.797533 2.835644,-5.742176 3.458984,-8.882813 0.799169,-3.931374 1.203224,-8.127921 3.457032,-11.5625 1.751053,-2.823299 5.21908,-3.934533 8.388671,-3.964843 0.384977,-0.01276 0.770455,-0.01664 1.15625,-0.0078 z m -4.583984,31.855469 c 1.397511,0.08392 2.775824,0.140625 4.076172,0.140625 1.232772,0 2.534987,-0.04747 3.857422,-0.123047 -0.30364,2.155034 -1.947962,3.158203 -3.958984,3.158203 -2.017154,0 -3.716694,-0.847573 -3.97461,-3.175781 z" />
  </g>
  <g
     id="g909"
     inkscape:label="cracked-dark"
     inkscape:groupmode="layer"
     style="display:none;opacity:1">
    <path
       id="path907"
       style="opacity:1;fill:#000000;fill-opacity:1;stroke:none"
       d="m 32,10.220703 c -16,0 -15,15 -17,21 -2,6 -4,6.587636 -4,10 0,1.031376 1.234738,1.963182 3.689453,2.744141 l 0.451159,-4.121188 1.835937,-2.4375 1.262983,-3.547908 1.091682,4.267768 -0.898438,2.677734 0.0078,0.0059 -0.183593,4.128906 c 1.590006,0.318732 3.087081,0.595186 5.139476,0.827015 0.295068,4.492587 3.809375,8.070312 8.603516,8.070313 4.927708,0 8.123297,-3.733111 8.460938,-8.06836 C 47.266275,45.014772 53,43.374704 53,41.220703 c 0,-3.412364 -2,-4 -4,-10 -2,-6 -1,-21 -17,-21 z m 0.507812,4.003906 c 1.157388,0.02646 2.312759,0.159347 3.433594,0.453125 2.345803,0.539185 4.404894,2.09017 5.53711,4.21875 2.454458,4.33223 2.298236,9.490971 3.916015,14.105469 0.582422,1.82995 1.429306,3.550945 2.345703,5.232422 0.641863,1.425738 0.479091,1.86966 -0.925781,2.246094 C 39.442522,42.297011 31.732431,42.608612 24.201172,41.75 23.379292,41.643209 23.237941,41.65266 22.362477,41.518688 L 23.264245,38.025123 19.815066,27.96921 c 0.618767,-3.207996 1.182214,-6.77655 3.147825,-9.771944 1.751053,-2.823299 5.21908,-3.934534 8.388671,-3.964844 0.384977,-0.01276 0.770455,-0.01666 1.15625,-0.0078 z m 3.96875,31.857422 c -0.14896,2.155034 -1.505436,4.061029 -4.470703,4.121094 -3.073432,0.06226 -4.527738,-1.643337 -4.697265,-4.082031 3.281099,0.191417 6.382713,0.113277 9.167968,-0.03906 z"
       sodipodi:nodetypes="ssscccccccccscsssccccccccccccccsscss" />
  </g>
  <g
     id="g917"
     inkscape:label="cracked-light"
     inkscape:groupmode="layer"
     style="display:inline;opacity:1">
    <path
       id="path915"
       style="opacity:1;fill:#000000;fill-opacity:1;stroke:none"
       d="m 32,10.441406 c -16,0 -15,15 -17,21 -2,6 -4,6.587636 -4,10 0,1.120104 2.013828,2.158275 4.605621,2.943244 l 0.356197,-4.316788 1.916514,-3.183784 0.564069,-4.219439 1.49797,5.163946 -1.530216,3.190946 c -0.0052,-0.0012 -0.0104,-0.0027 -0.01563,-0.0039 l -0.152343,4.033203 c 1.757912,0.367962 3.686868,0.676141 5.689453,0.902344 0.272709,4.152157 3.768819,7.490234 7.984375,7.490234 4.208958,0 7.700046,-3.327599 7.982422,-7.470703 C 46.703736,45.217884 53,43.595407 53,41.441406 c 0,-3.412364 -2,-4 -4,-10 -2,-6 -1,-21 -17,-21 z m 0.507812,4.003906 c 1.157388,0.02646 2.312759,0.159347 3.433594,0.453126 2.345803,0.539184 4.404894,2.090169 5.53711,4.21875 2.454458,4.332228 2.298236,9.49097 3.916015,14.105468 0.582422,1.82995 1.429306,3.550945 2.345703,5.232422 0.641863,1.425738 0.479091,1.86966 -0.925781,2.246094 -7.371931,1.816555 -15.082022,2.128143 -22.613281,1.269531 -0.609631,-0.07921 -1.434283,-0.211665 -1.434283,-0.211665 L 23.897748,37.84375 20.245021,26.075235 c 0.577326,-3.202114 1.473047,-5.717154 2.71787,-7.657266 1.751053,-2.823299 5.21908,-3.934534 8.388671,-3.964844 0.384977,-0.01276 0.770455,-0.01666 1.15625,-0.0078 z m -4.583984,31.855469 c 1.397511,0.08392 2.775824,0.140625 4.076172,0.140625 1.232772,0 2.534987,-0.04747 3.857422,-0.123047 -0.30364,2.155034 -1.947962,3.158205 -3.958984,3.158203 -2.017155,0 -3.716694,-0.847573 -3.97461,-3.175781 z"
       sodipodi:nodetypes="ssscccccccccscssscccccccccccccccscsc" />
  </g>
</svg>
