<?xml version="1.0" encoding="UTF-8" standalone="no"?>
<svg
   xmlns:dc="http://purl.org/dc/elements/1.1/"
   xmlns:cc="http://creativecommons.org/ns#"
   xmlns:rdf="http://www.w3.org/1999/02/22-rdf-syntax-ns#"
   xmlns:svg="http://www.w3.org/2000/svg"
   xmlns="http://www.w3.org/2000/svg"
   xmlns:sodipodi="http://sodipodi.sourceforge.net/DTD/sodipodi-0.dtd"
   xmlns:inkscape="http://www.inkscape.org/namespaces/inkscape"
   width="512"
   height="512"
   viewBox="0 0 135.46666 135.46666"
   version="1.1"
   id="svg1419"
   inkscape:version="1.0.1 (3bc2e813f5, 2020-09-07)"
   sodipodi:docname="listing_icon.svg"
   inkscape:export-xdpi="96"
   inkscape:export-ydpi="96">
  <defs
     id="defs1413">
    <linearGradient
       id="linearGradient7198"
       x1="35.345341"
       x2="90.325806"
       y1="69.437767"
       y2="87.626244"
       gradientUnits="userSpaceOnUse">
      <stop
         offset="0"
         id="stop14" />
      <stop
         stop-opacity="0"
         offset="1"
         id="stop16" />
    </linearGradient>
    <linearGradient
       id="linearGradient7198-3"
       x1="35.345341"
       x2="90.325806"
       y1="69.437767"
       y2="87.626244"
       gradientUnits="userSpaceOnUse">
      <stop
         offset="0"
         id="stop14-6" />
      <stop
         stop-opacity="0"
         offset="1"
         id="stop16-7" />
    </linearGradient>
  </defs>
  <sodipodi:namedview
     id="base"
     pagecolor="#7f0000"
     bordercolor="#666666"
     borderopacity="1.0"
     inkscape:pageopacity="1"
     inkscape:pageshadow="2"
     inkscape:zoom="0.70710678"
     inkscape:cx="-139.07398"
     inkscape:cy="149.73399"
     inkscape:document-units="px"
     inkscape:current-layer="layer1"
     inkscape:document-rotation="0"
     showgrid="true"
     units="px"
     inkscape:lockguides="true"
     showguides="true"
     inkscape:guide-bbox="true"
     inkscape:window-width="1920"
     inkscape:window-height="1027"
     inkscape:window-x="1358"
     inkscape:window-y="-8"
     inkscape:window-maximized="1"
     inkscape:snap-bbox="true"
     inkscape:snap-bbox-midpoints="true"
     inkscape:snap-bbox-edge-midpoints="true"
     inkscape:bbox-nodes="true"
     inkscape:snap-midpoints="false"
     inkscape:snap-smooth-nodes="false"
     inkscape:object-nodes="false"
     inkscape:snap-intersection-paths="false"
     inkscape:object-paths="false"
     inkscape:snap-center="false"
     inkscape:snap-object-midpoints="false"
     inkscape:snap-text-baseline="false"
     inkscape:snap-page="false"
     inkscape:snap-to-guides="false"
     inkscape:snap-others="true"
     inkscape:snap-nodes="true"
     inkscape:bbox-paths="true"
     inkscape:snap-global="false">
    <inkscape:grid
       type="xygrid"
       id="grid2015"
       snapvisiblegridlinesonly="true"
       empspacing="16" />
    <sodipodi:guide
       position="67.73333,118.53333"
       orientation="0,1"
       id="guide2023"
       inkscape:label=""
       inkscape:locked="true"
       inkscape:color="rgb(0,0,255)" />
    <sodipodi:guide
       position="16.933332,118.53333"
       orientation="-1,0"
       id="guide2058"
       inkscape:label=""
       inkscape:locked="true"
       inkscape:color="rgb(0,0,255)" />
    <sodipodi:guide
       position="118.53333,105.83333"
       orientation="-1,0"
       id="guide2060"
       inkscape:label=""
       inkscape:locked="true"
       inkscape:color="rgb(0,0,255)" />
    <sodipodi:guide
       position="76.199996,16.933332"
       orientation="0,1"
       id="guide2062"
       inkscape:label=""
       inkscape:locked="true"
       inkscape:color="rgb(0,0,255)" />
    <sodipodi:guide
       position="21.166666,118.53333"
       orientation="-1,0"
       id="guide845"
       inkscape:label=""
       inkscape:locked="false"
       inkscape:color="rgb(138,226,52)" />
    <sodipodi:guide
       position="114.29999,135.46666"
       orientation="-1,0"
       id="guide847"
       inkscape:label=""
       inkscape:locked="false"
       inkscape:color="rgb(138,226,52)" />
    <sodipodi:guide
       position="93.133329,21.166666"
       orientation="0,1"
       id="guide849"
       inkscape:label=""
       inkscape:locked="false"
       inkscape:color="rgb(138,226,52)" />
    <sodipodi:guide
       position="169.33333,114.29999"
       orientation="0,1"
       id="guide851"
       inkscape:label=""
       inkscape:locked="false"
       inkscape:color="rgb(138,226,52)" />
  </sodipodi:namedview>
  <metadata
     id="metadata1416">
    <rdf:RDF>
      <cc:Work
         rdf:about="">
        <dc:format>image/svg+xml</dc:format>
        <dc:type
           rdf:resource="http://purl.org/dc/dcmitype/StillImage" />
        <dc:title />
      </cc:Work>
    </rdf:RDF>
  </metadata>
  <g
     inkscape:label="Layer 1"
     inkscape:groupmode="layer"
     id="layer1"
     style="display:inline;opacity:1">
    <g
       id="g23"
       style="display:inline;opacity:0.185"
       transform="matrix(2.1308318,0,0,2.1308318,-51.374449,-47.932435)">
      <path
         d="m 41.102297,70.640505 50.199,50.102005 35.806073,-37.879415 -49.944998,-49.996 -26.800159,15.224874 z"
         id="path21"
         inkscape:connector-curvature="0"
         style="fill:url(#linearGradient7198-3);fill-rule:evenodd;stroke-width:0.092008"
         sodipodi:nodetypes="cccccc" />
    </g>
    <path
       style="display:inline;opacity:1;vector-effect:none;fill:#ffffff;fill-opacity:1;stroke:none;stroke-width:3.75002;stroke-linecap:butt;stroke-linejoin:miter;stroke-miterlimit:4;stroke-dasharray:none;stroke-dashoffset:0;stroke-opacity:1"
       d="m 67.816715,21.174655 c -8.163229,0.02423 -16.179239,2.175745 -23.254434,6.247612 -0.05638,0.03222 -0.123217,0.04831 -0.18282,0.08053 -1.091252,-1.576804 -18.820472,-8.510011 -21.7969,-5.390637 -2.964749,3.107136 0.67408,25.715997 2.321835,27.143566 -2.603873,5.924021 -3.952996,12.322958 -3.962421,18.793977 0.02423,17.407405 9.637106,32.991407 24.375,41.052297 12.421376,6.88453 32.081514,6.88453 45.000034,8e-5 14.737891,-8.06089 24.350101,-23.644972 24.374981,-41.052377 -0.007,-6.470937 -1.35845,-12.869956 -3.96232,-18.793895 1.64807,-1.427651 5.28651,-24.036512 2.32174,-27.143648 -2.97642,-3.119296 -20.705633,3.813833 -21.796888,5.390637 -0.05638,-0.03222 -0.123218,-0.04832 -0.182815,-0.08053 C 83.996429,23.350401 75.980502,21.196803 67.81719,21.174738 Z m -12.427175,63.3439 c 3.735392,0 6.763442,3.028128 6.763442,6.763444 H 48.626093 c 0,-3.735316 3.028135,-6.763444 6.763447,-6.763444 z m 24.854345,0 c 3.735314,0 6.763444,3.028128 6.763444,6.763444 H 73.480365 c 0,-3.735316 3.028129,-6.763444 6.76352,-6.763444 z"
       id="path3786-8"
       inkscape:connector-curvature="0"
       sodipodi:nodetypes="scccccccccscccscccccccc" />
    <path
       style="display:inline;opacity:1;vector-effect:none;fill:#000000;fill-opacity:0.0700935;stroke:none;stroke-width:3.75002;stroke-linecap:butt;stroke-linejoin:miter;stroke-miterlimit:4;stroke-dasharray:none;stroke-dashoffset:0;stroke-opacity:1"
       d="m 112.68941,21.877247 c -0.61609,1.274148 -10.93557,22.314502 -32.969568,45.92941 -6.968887,7.468851 -13.70712,13.610964 -19.710229,18.557368 1.313371,1.2338 2.143369,2.975055 2.143369,4.919257 H 53.725356 C 43.580875,98.937922 36.657894,102.55751 36.657894,102.55751 l -0.370463,0.0724 c 2.727815,2.48339 5.743783,4.67773 9.031076,6.47577 12.421458,6.88457 32.078696,6.88449 44.997215,0 14.737898,-8.06103 24.350598,-23.648726 24.375558,-41.056129 -0.007,-6.47102 -1.35815,-12.866412 -3.96201,-18.790436 1.64807,-1.427568 5.28699,-24.040131 2.32223,-27.147271 -0.0927,-0.09744 -0.2416,-0.154619 -0.36241,-0.23275 z m -32.4452,62.643162 c 3.735311,0 6.762878,3.027484 6.762878,6.762873 H 73.481329 c 0,-3.735389 3.027489,-6.762873 6.762881,-6.762873 z"
       id="path3786" />
  </g>
</svg>
