<?xml version="1.0" encoding="UTF-8" standalone="no"?>
<!-- Created with Inkscape (http://www.inkscape.org/) -->

<svg
   xmlns:dc="http://purl.org/dc/elements/1.1/"
   xmlns:cc="http://creativecommons.org/ns#"
   xmlns:rdf="http://www.w3.org/1999/02/22-rdf-syntax-ns#"
   xmlns:svg="http://www.w3.org/2000/svg"
   xmlns="http://www.w3.org/2000/svg"
   xmlns:sodipodi="http://sodipodi.sourceforge.net/DTD/sodipodi-0.dtd"
   xmlns:inkscape="http://www.inkscape.org/namespaces/inkscape"
   width="48px"
   height="48px"
   id="svg4202"
   version="1.1"
   inkscape:version="0.91pre2 r13516"
   sodipodi:docname="ic_big_connected.svg"
   inkscape:export-filename="C:\Users\sq\Desktop\ic_disconnected.png"
   inkscape:export-xdpi="90"
   inkscape:export-ydpi="90">
  <defs
     id="defs4204" />
  <sodipodi:namedview
     id="base"
     pagecolor="#001b1f"
     bordercolor="#666666"
     borderopacity="1.0"
     inkscape:pageopacity="0"
     inkscape:pageshadow="2"
     inkscape:zoom="5.656854"
     inkscape:cx="71.543029"
     inkscape:cy="29.596888"
     inkscape:current-layer="layer1"
     showgrid="false"
     inkscape:grid-bbox="true"
     inkscape:document-units="px"
     showguides="true"
     inkscape:guide-bbox="true"
     inkscape:window-width="1680"
     inkscape:window-height="988"
     inkscape:window-x="1358"
     inkscape:window-y="-8"
     inkscape:window-maximized="1"
     inkscape:snap-page="true"
     inkscape:snap-grids="true"
     inkscape:snap-bbox="true"
     inkscape:bbox-paths="true"
     inkscape:bbox-nodes="true"
     inkscape:snap-bbox-edge-midpoints="true"
     inkscape:snap-bbox-midpoints="true"
     inkscape:snap-intersection-paths="true"
     inkscape:object-paths="true"
     inkscape:object-nodes="true"
     inkscape:snap-smooth-nodes="true"
     inkscape:snap-midpoints="true"
     inkscape:snap-object-midpoints="false"
     inkscape:snap-center="false"
     inkscape:snap-text-baseline="true"
     inkscape:snap-global="false">
    <inkscape:grid
       type="xygrid"
       id="grid4228"
       empspacing="8"
       visible="true"
       enabled="true"
       snapvisiblegridlinesonly="true"
       dotted="false" />
  </sodipodi:namedview>
  <metadata
     id="metadata4207">
    <rdf:RDF>
      <cc:Work
         rdf:about="">
        <dc:format>image/svg+xml</dc:format>
        <dc:type
           rdf:resource="http://purl.org/dc/dcmitype/StillImage" />
        <dc:title></dc:title>
      </cc:Work>
    </rdf:RDF>
  </metadata>
  <g
     id="layer1"
     inkscape:label="Layer 1"
     inkscape:groupmode="layer"
     style="display:inline;opacity:1">
    <path
       style="color:#000000;font-style:normal;font-variant:normal;font-weight:normal;font-stretch:normal;font-size:medium;line-height:normal;font-family:sans-serif;text-indent:0;text-align:start;text-decoration:none;text-decoration-line:none;text-decoration-style:solid;text-decoration-color:#000000;letter-spacing:normal;word-spacing:normal;text-transform:none;direction:ltr;block-progression:tb;writing-mode:lr-tb;baseline-shift:baseline;text-anchor:start;clip-rule:nonzero;display:inline;overflow:visible;visibility:visible;opacity:1;isolation:auto;mix-blend-mode:normal;color-interpolation:sRGB;color-interpolation-filters:linearRGB;solid-color:#000000;solid-opacity:1;fill:#ffffff;fill-opacity:1;fill-rule:nonzero;stroke:none;stroke-width:2;stroke-linecap:round;stroke-linejoin:round;stroke-miterlimit:4;stroke-dasharray:none;stroke-dashoffset:0;stroke-opacity:1;color-rendering:auto;image-rendering:auto;shape-rendering:auto;text-rendering:auto;enable-background:accumulate"
       d="M 46.769531 8.859375 C 46.769531 8.859375 19.370194 9.5981434 19.34375 9.5996094 C 16.624938 9.7503271 13.030805 10.789032 10.804688 12.744141 C 9.6465722 13.761269 8.8379564 14.890639 8.2285156 16.083984 L 21.09375 16.083984 C 21.285344 16.041124 21.478752 15.998409 21.658203 15.988281 L 45.484375 15.017578 C 45.902031 15.000548 46.26504 14.725565 46.394531 14.328125 L 47.748047 10.167969 C 47.96141 9.5108799 47.460135 8.8405125 46.769531 8.859375 z M 23.199219 24.972656 L 23.199219 26.75 L 21.421875 26.75 L 21.421875 28.527344 L 18.248047 28.527344 L 16.556641 33.130859 L 14.3125 33.265625 C 13.975783 33.285835 13.498929 33.008097 13.396484 32.867188 C 13.315274 32.755479 13.141194 32.288167 13.361328 31.580078 L 14.447266 28.527344 L 5.421875 28.527344 L 5.421875 26.75 L 4.3066406 26.75 L 1.5117188 34.322266 C 1.3198443 34.842291 1.1672529 35.57455 1.2304688 36.429688 C 1.2936847 37.284824 1.6158459 38.294545 2.46875 39.023438 C 4.5331704 40.787689 7.6280566 40.555937 9.2363281 40.400391 L 37.867188 37.630859 C 38.257655 37.592919 38.589884 37.330195 38.716797 36.958984 L 41.595703 28.527344 L 32.037109 28.527344 L 30.820312 31.990234 L 27.167969 32.263672 L 28.533203 28.375 L 28.533203 26.75 L 26.755859 26.75 L 26.755859 24.972656 L 23.199219 24.972656 z "
       id="path2996-4-8" />
    <path
       style="opacity:1;fill:#ffffff;fill-opacity:1;fill-rule:nonzero;stroke:none;stroke-width:2;stroke-linecap:round;stroke-linejoin:round;stroke-miterlimit:4;stroke-dasharray:none;stroke-opacity:1"
       d="M -872 -64 L -872 -48 L -864 -48 L -864 -40 L -856 -40 L -856 -32 L -848 -32 L -848 -24 L -792 -24 L -792 -32 L -784 -32 L -784 -40 L -776 -40 L -776 -56 L -760 -56 L -760 -40 L -752 -40 L -752 -32 L -744 -32 L -744 -24 L -696 -24 L -696 -32 L -688 -32 L -688 -40 L -680 -40 L -680 -48 L -672 -48 L -672 -64 L -872 -64 z M -856 -56 L -848 -56 L -848 -48 L -840 -48 L -840 -56 L -832 -56 L -832 -48 L -824 -48 L -824 -40 L -816 -40 L -816 -32 L -824 -32 L -824 -40 L -832 -40 L -832 -32 L -840 -32 L -840 -40 L -848 -40 L -848 -48 L -856 -48 L -856 -56 z M -840 -40 L -832 -40 L -832 -48 L -840 -48 L -840 -40 z M -752 -56 L -744 -56 L -744 -48 L -736 -48 L -736 -56 L -728 -56 L -728 -48 L -720 -48 L -720 -40 L -712 -40 L -712 -32 L -720 -32 L -720 -40 L -728 -40 L -728 -32 L -736 -32 L -736 -40 L -744 -40 L -744 -48 L -752 -48 L -752 -56 z M -736 -40 L -728 -40 L -728 -48 L -736 -48 L -736 -40 z "
       id="path4154" />
    <path
       style="opacity:1;fill:#ff2a2a;fill-opacity:1;fill-rule:nonzero;stroke:none;stroke-width:2;stroke-linecap:round;stroke-linejoin:round;stroke-miterlimit:4;stroke-dasharray:none;stroke-opacity:1"
       d="m -664,-72 0,32 8,0 0,8 8,0 0,8 8,0 0,8 72,0 0,-8 8,0 0,-8 16,0 0,8 8,0 0,8 64,0 0,-8 8,0 0,-8 8,0 0,-8 8,0 0,-32 z"
       id="path4224"
       inkscape:connector-curvature="0" />
    <path
       id="path4222"
       d="m -656,-64 0,16 8,0 0,8 8,0 0,8 8,0 0,8 56,0 0,-8 8,0 0,-8 8,0 0,-16 16,0 0,16 8,0 0,8 8,0 0,8 48,0 0,-8 8,0 0,-8 8,0 0,-8 8,0 0,-16 -200,0 z m 16,8 8,0 0,8 8,0 0,-8 8,0 0,8 8,0 0,8 8,0 0,8 -8,0 0,-8 -8,0 0,8 -8,0 0,-8 -8,0 0,-8 -8,0 0,-8 z m 16,16 8,0 0,-8 -8,0 0,8 z m 88,-16 8,0 0,8 8,0 0,-8 8,0 0,8 8,0 0,8 8,0 0,8 -8,0 0,-8 -8,0 0,8 -8,0 0,-8 -8,0 0,-8 -8,0 0,-8 z m 16,16 8,0 0,-8 -8,0 0,8 z"
       style="opacity:1;fill:#ffffff;fill-opacity:1;fill-rule:nonzero;stroke:none;stroke-width:2;stroke-linecap:round;stroke-linejoin:round;stroke-miterlimit:4;stroke-dasharray:none;stroke-opacity:1"
       inkscape:connector-curvature="0" />
    <path
       inkscape:connector-curvature="0"
       style="opacity:1;fill:#ffffff;fill-opacity:1;fill-rule:nonzero;stroke:none;stroke-width:2;stroke-linecap:round;stroke-linejoin:round;stroke-miterlimit:4;stroke-dasharray:none;stroke-opacity:1"
       d="m 1.866166,17.860961 0,3.555556 1.777778,0 0,1.777778 1.7777776,0 0,1.777777 1.777778,0 0,1.777778 12.4444444,0 0,-1.777778 1.777777,0 0,-1.777777 1.777778,0 0,-3.555556 3.555556,0 0,3.555556 1.777777,0 0,1.777777 1.777778,0 0,1.777778 10.666667,0 0,-1.777778 1.777778,0 0,-1.777777 1.777777,0 0,-1.777778 1.777778,0 0,-3.555556 -44.444444,0 z m 3.5555556,1.777778 1.777778,0 0,1.777778 1.7777776,0 0,-1.777778 1.7777778,0 0,1.777778 1.777777,0 0,1.777778 1.777778,0 0,1.777777 -1.777778,0 0,-1.777777 -1.777777,0 0,1.777777 -1.7777778,0 0,-1.777777 -1.7777776,0 0,-1.777778 -1.777778,0 0,-1.777778 z m 3.5555556,3.555556 1.7777778,0 0,-1.777778 -1.7777778,0 0,1.777778 z m 19.5555548,-3.555556 1.777778,0 0,1.777778 1.777778,0 0,-1.777778 1.777778,0 0,1.777778 1.777778,0 0,1.777778 1.777777,0 0,1.777777 -1.777777,0 0,-1.777777 -1.777778,0 0,1.777777 -1.777778,0 0,-1.777777 -1.777778,0 0,-1.777778 -1.777778,0 0,-1.777778 z m 3.555556,3.555556 1.777778,0 0,-1.777778 -1.777778,0 0,1.777778 z"
       id="path4228" />
  </g>
</svg>
