<?xml version="1.0" encoding="UTF-8" standalone="no"?>
<!-- Created with Inkscape (http://www.inkscape.org/) -->

<svg
   xmlns:dc="http://purl.org/dc/elements/1.1/"
   xmlns:cc="http://creativecommons.org/ns#"
   xmlns:rdf="http://www.w3.org/1999/02/22-rdf-syntax-ns#"
   xmlns:svg="http://www.w3.org/2000/svg"
   xmlns="http://www.w3.org/2000/svg"
   xmlns:sodipodi="http://sodipodi.sourceforge.net/DTD/sodipodi-0.dtd"
   xmlns:inkscape="http://www.inkscape.org/namespaces/inkscape"
   width="48px"
   height="48px"
   id="svg4202"
   version="1.1"
   inkscape:version="0.91pre2 r13516"
   sodipodi:docname="ic_big_disconnected.svg"
   inkscape:export-filename="C:\Users\sq\Desktop\ic_disconnected.png"
   inkscape:export-xdpi="90"
   inkscape:export-ydpi="90">
  <defs
     id="defs4204" />
  <sodipodi:namedview
     id="base"
     pagecolor="#000000"
     bordercolor="#666666"
     borderopacity="1.0"
     inkscape:pageopacity="0"
     inkscape:pageshadow="2"
     inkscape:zoom="11.294988"
     inkscape:cx="10.957803"
     inkscape:cy="24.855368"
     inkscape:current-layer="layer1"
     showgrid="true"
     inkscape:grid-bbox="true"
     inkscape:document-units="px"
     showguides="true"
     inkscape:guide-bbox="true"
     inkscape:window-width="1680"
     inkscape:window-height="988"
     inkscape:window-x="1358"
     inkscape:window-y="-8"
     inkscape:window-maximized="1"
     inkscape:snap-page="false"
     inkscape:snap-grids="false">
    <inkscape:grid
       type="xygrid"
       id="grid4228"
       empspacing="8"
       visible="true"
       enabled="true"
       snapvisiblegridlinesonly="true" />
  </sodipodi:namedview>
  <metadata
     id="metadata4207">
    <rdf:RDF>
      <cc:Work
         rdf:about="">
        <dc:format>image/svg+xml</dc:format>
        <dc:type
           rdf:resource="http://purl.org/dc/dcmitype/StillImage" />
        <dc:title></dc:title>
      </cc:Work>
    </rdf:RDF>
  </metadata>
  <g
     id="layer1"
     inkscape:label="Layer 1"
     inkscape:groupmode="layer"
     style="display:inline">
    <path
       style="fill:#ffffff;stroke:#ffffff;stroke-width:2;stroke-linecap:round;stroke-linejoin:round;stroke-miterlimit:4;stroke-opacity:1;stroke-dasharray:none;marker-start:none"
       d="M 46.78125 9.84375 C 46.78125 9.84375 19.432694 10.592284 19.40625 10.59375 C 18.73926 10.630725 17.983611 10.74157 17.21875 10.90625 L 21.25 15.0625 C 21.36754 15.046918 21.477829 15.006542 21.59375 15 L 45.4375 14.03125 L 46.78125 9.84375 z M 9.6875 15.53125 C 8.9215481 16.699133 8.4202684 17.976137 8.03125 19.34375 L 13.125 19.0625 L 9.6875 15.53125 z "
       id="path2996-4-8" />
    <path
       style="fill:#ffffff;stroke:#ffffff;stroke-width:2;stroke-linecap:round;stroke-linejoin:round;stroke-miterlimit:4;stroke-opacity:1;stroke-dasharray:none"
       d="M 44.15625 17.96875 L 36.65625 18.375 C 36.65625 18.375 34.885441 23.433701 33.40625 27.625 L 38.90625 33.3125 L 44.15625 17.96875 z M 30.90625 18.625 L 24.96875 18.90625 L 29.25 23.34375 L 30.90625 18.625 z M 15.46875 22.71875 L 6.65625 23.21875 L 2.4375 34.65625 C 2.1642804 35.39674 1.9150735 37.215998 3.125 38.25 C 4.7193527 39.612534 7.606499 39.553114 9.125 39.40625 L 30.78125 37.3125 L 26.875 33.28125 C 26.501027 33.308974 25.71875 33.375 25.71875 33.375 L 26.0625 32.4375 L 20.125 26.3125 L 17.28125 34.09375 L 14.375 34.25 C 13.651462 34.307132 12.936349 33.939989 12.59375 33.46875 C 12.273988 33.02892 12.1101 32.233836 12.40625 31.28125 L 15.46875 22.71875 z "
       id="path2998-0-8" />
    <rect
       style="fill:#ffffff;stroke:#ffffff;stroke-width:0;stroke-linecap:round;stroke-linejoin:round;stroke-miterlimit:4;stroke-dasharray:none;display:inline"
       id="rect4793"
       width="3.770323"
       height="46.619778"
       x="-1.369491"
       y="11.487063"
       transform="matrix(0.74674442,-0.6651111,0.69528719,0.71873203,0,0)"
       ry="0"
       rx="0" />
  </g>
</svg>
