<?xml version="1.0" encoding="UTF-8" standalone="no"?>
<!-- Created with Inkscape (http://www.inkscape.org/) -->

<svg
   xmlns:dc="http://purl.org/dc/elements/1.1/"
   xmlns:cc="http://creativecommons.org/ns#"
   xmlns:rdf="http://www.w3.org/1999/02/22-rdf-syntax-ns#"
   xmlns:svg="http://www.w3.org/2000/svg"
   xmlns="http://www.w3.org/2000/svg"
   xmlns:sodipodi="http://sodipodi.sourceforge.net/DTD/sodipodi-0.dtd"
   xmlns:inkscape="http://www.inkscape.org/namespaces/inkscape"
   width="64px"
   height="64px"
   id="svg2996"
   version="1.1"
   inkscape:version="0.91pre2 r13516"
   sodipodi:docname="ic_bell_cracked.svg"
   inkscape:export-filename="C:\Users\sq\Desktop\goof\ic_bell.png"
   inkscape:export-xdpi="90"
   inkscape:export-ydpi="90">
  <defs
     id="defs2998" />
  <sodipodi:namedview
     id="base"
     pagecolor="#1b1f22"
     bordercolor="#666666"
     borderopacity="1.0"
     inkscape:pageopacity="0"
     inkscape:pageshadow="2"
     inkscape:zoom="11.313708"
     inkscape:cx="28.272515"
     inkscape:cy="22.443653"
     inkscape:current-layer="g4150"
     showgrid="false"
     inkscape:document-units="px"
     inkscape:grid-bbox="true"
     inkscape:snap-bbox="true"
     inkscape:snap-global="false"
     inkscape:window-width="1680"
     inkscape:window-height="988"
     inkscape:window-x="-8"
     inkscape:window-y="-8"
     inkscape:window-maximized="1"
     inkscape:showpageshadow="true"
     borderlayer="false"
     showguides="false"
     inkscape:guide-bbox="true"
     inkscape:bbox-paths="false"
     inkscape:snap-nodes="true">
    <inkscape:grid
       type="xygrid"
       id="grid3015"
       empspacing="8"
       visible="true"
       enabled="true"
       snapvisiblegridlinesonly="true"
       units="px" />
    <sodipodi:guide
       orientation="1,0"
       position="53,32"
       id="guide3039" />
    <sodipodi:guide
       orientation="1,0"
       position="11,21"
       id="guide3041" />
    <sodipodi:guide
       orientation="0,1"
       position="-3,10"
       id="guide3043" />
    <sodipodi:guide
       orientation="0,1"
       position="8,54"
       id="guide3045" />
  </sodipodi:namedview>
  <metadata
     id="metadata3001">
    <rdf:RDF>
      <cc:Work
         rdf:about="">
        <dc:format>image/svg+xml</dc:format>
        <dc:type
           rdf:resource="http://purl.org/dc/dcmitype/StillImage" />
        <dc:title></dc:title>
      </cc:Work>
    </rdf:RDF>
  </metadata>
  <g
     id="layer1"
     inkscape:label="Layer 1"
     inkscape:groupmode="layer"
     style="display:none">
    <path
       style="opacity:1;fill:#ffffff;fill-opacity:0.8;stroke:none"
       d="m 32,10 c -16,0 -15,15 -17,21 -2,6 -4,6.587636 -4,10 0,3 12.189549,5 21,5 8.810451,0 21,-2 21,-5 C 53,37.587636 51,37 49,31 47,25 48,10 32,10 Z"
       id="path3019-8"
       inkscape:connector-curvature="0" />
    <path
       style="fill:#ffffff;fill-opacity:0.8;stroke:none;stroke-width:0;stroke-linecap:round;stroke-linejoin:round;stroke-miterlimit:4;stroke-dasharray:none;stroke-opacity:0.8"
       d="M 26.03125,48.4375 C 26.25247,51.549752 28.831421,54 32,54 c 3.168579,0 5.74753,-2.450248 5.96875,-5.5625 -2.034659,0.160288 -4.070823,0.25 -5.96875,0.25 -1.897927,0 -3.934091,-0.08971 -5.96875,-0.25 z"
       id="path3007"
       inkscape:connector-curvature="0"
       sodipodi:nodetypes="cscsc" />
  </g>
  <g
     style="display:inline"
     inkscape:groupmode="layer"
     inkscape:label="Layer 1 copy 1"
     id="g4150">
    <path
       style="opacity:1;fill:#ffffff;fill-opacity:0.8;stroke:none"
       d="M 32 10 C 16 10 17 25 15 31 C 13 37 11 37.587636 11 41 C 11 42.225797 13.052426 43.279842 16.060547 44.103516 L 17.054688 39.199219 L 19.318359 35.808594 L 20.919922 31.902344 L 20.921875 36.537109 L 19.361328 40.390625 L 19.316406 44.841797 C 23.26465 45.579647 27.979742 46 32 46 C 40.810451 46 53 44 53 41 C 53 37.587636 51 37 49 31 C 47 25 48 10 32 10 z "
       id="path4152" />
    <path
       sodipodi:nodetypes="cscsc"
       inkscape:connector-curvature="0"
       id="path4154"
       d="M 26.03125,48.4375 C 26.25247,51.549752 28.831421,54 32,54 c 3.168579,0 5.74753,-2.450248 5.96875,-5.5625 -2.034659,0.160288 -4.070823,0.25 -5.96875,0.25 -1.897927,0 -3.934091,-0.08971 -5.96875,-0.25 z"
       style="fill:#ffffff;fill-opacity:0.8;stroke:none;stroke-width:0;stroke-linecap:round;stroke-linejoin:round;stroke-miterlimit:4;stroke-dasharray:none;stroke-opacity:0.8" />
  </g>
</svg>
