<?xml version="1.0" encoding="UTF-8" standalone="no"?>
<svg
   xmlns:dc="http://purl.org/dc/elements/1.1/"
   xmlns:cc="http://creativecommons.org/ns#"
   xmlns:rdf="http://www.w3.org/1999/02/22-rdf-syntax-ns#"
   xmlns:svg="http://www.w3.org/2000/svg"
   xmlns="http://www.w3.org/2000/svg"
   xmlns:sodipodi="http://sodipodi.sourceforge.net/DTD/sodipodi-0.dtd"
   xmlns:inkscape="http://www.inkscape.org/namespaces/inkscape"
   height="32"
   viewBox="0 0 26 32"
   width="26"
   id="svg2"
   version="1.1"
   inkscape:version="0.91 r13725"
   sodipodi:docname="ic_paste.svg"
   style="fill:#000000">
  <metadata
     id="metadata12">
    <rdf:RDF>
      <cc:Work
         rdf:about="">
        <dc:format>image/svg+xml</dc:format>
        <dc:type
           rdf:resource="http://purl.org/dc/dcmitype/StillImage" />
        <dc:title></dc:title>
      </cc:Work>
    </rdf:RDF>
  </metadata>
  <defs
     id="defs10" />
  <sodipodi:namedview
     pagecolor="#1b1f22"
     bordercolor="#666666"
     borderopacity="1"
     objecttolerance="10"
     gridtolerance="10"
     guidetolerance="10"
     inkscape:pageopacity="0"
     inkscape:pageshadow="2"
     inkscape:window-width="1680"
     inkscape:window-height="987"
     id="namedview8"
     showgrid="true"
     inkscape:zoom="16"
     inkscape:cx="24.065636"
     inkscape:cy="13.393725"
     inkscape:window-x="1358"
     inkscape:window-y="-8"
     inkscape:window-maximized="1"
     inkscape:current-layer="svg2"
     inkscape:snap-page="true"
     inkscape:snap-bbox="true"
     inkscape:bbox-nodes="true"
     inkscape:snap-bbox-edge-midpoints="true"
     inkscape:snap-bbox-midpoints="true"
     inkscape:bbox-paths="false"
     inkscape:snap-intersection-paths="true"
     inkscape:object-paths="true"
     inkscape:snap-smooth-nodes="true"
     inkscape:snap-midpoints="true"
     inkscape:object-nodes="true"
     inkscape:snap-object-midpoints="true"
     inkscape:snap-center="true"
     inkscape:snap-text-baseline="true"
     inkscape:snap-global="false"
     fit-margin-top="0"
     fit-margin-left="0"
     fit-margin-right="0"
     fit-margin-bottom="0">
    <inkscape:grid
       type="xygrid"
       id="grid4140"
       originx="0"
       originy="0" />
  </sodipodi:namedview>
  <path
     d="m 16.126262,6.7796715 -4.212986,0 c -0.423314,-1.1691538 -1.531994,-2.015782 -2.8422532,-2.015782 -1.310259,0 -2.4189395,0.8466282 -2.8422537,2.015782 l -4.2129862,0 C 0.90710228,6.7796715 0,7.6867739 0,8.7954551 L 0,24.921715 C 0,26.030397 0.90710228,26.9375 2.0157829,26.9375 l 14.1104791,0 c 1.108681,0 2.015784,-0.907103 2.015784,-2.015785 l 0,-16.1262599 c 0,-1.1086812 -0.907103,-2.0157836 -2.015784,-2.0157836 z m -7.0552392,0 c 0.5543405,0 1.0078912,0.4535513 1.0078912,1.0078919 0,0.5543406 -0.4535507,1.0078917 -1.0078912,1.0078917 -0.5543402,0 -1.0078914,-0.4535511 -1.0078914,-1.0078917 0,-0.5543406 0.4535512,-1.0078919 1.0078914,-1.0078919 z m 7.0552392,18.1420435 -14.1104791,0 0,-16.1262599 2.0157831,0 0,3.0236749 10.078914,0 0,-3.0236749 2.015782,0 0,16.1262599 z"
     id="path4"
     style="fill:#ffffff;fill-opacity:0.8"
     inkscape:connector-curvature="0" />
  <path
     d="M 0,8 24,8 24,32 0,32 Z"
     id="path6"
     inkscape:connector-curvature="0"
     style="fill:none" />
</svg>
