<?xml version="1.0" encoding="UTF-8" standalone="no"?>
<!-- Created with Inkscape (http://www.inkscape.org/) -->

<svg
   xmlns:dc="http://purl.org/dc/elements/1.1/"
   xmlns:cc="http://creativecommons.org/ns#"
   xmlns:rdf="http://www.w3.org/1999/02/22-rdf-syntax-ns#"
   xmlns:svg="http://www.w3.org/2000/svg"
   xmlns="http://www.w3.org/2000/svg"
   xmlns:sodipodi="http://sodipodi.sourceforge.net/DTD/sodipodi-0.dtd"
   xmlns:inkscape="http://www.inkscape.org/namespaces/inkscape"
   width="64px"
   height="64px"
   id="svg2996"
   version="1.1"
   inkscape:version="0.91pre2 r13516"
   sodipodi:docname="ic_tab_disabled.svg"
   inkscape:export-filename="C:\Users\sq\Desktop\goof\ic_tab.png"
   inkscape:export-xdpi="90"
   inkscape:export-ydpi="90">
  <defs
     id="defs2998" />
  <sodipodi:namedview
     id="base"
     pagecolor="#1b1f22"
     bordercolor="#666666"
     borderopacity="1"
     inkscape:pageopacity="0"
     inkscape:pageshadow="2"
     inkscape:zoom="5.656854"
     inkscape:cx="43.568381"
     inkscape:cy="25.697353"
     inkscape:current-layer="layer1"
     showgrid="true"
     inkscape:document-units="px"
     inkscape:grid-bbox="true"
     inkscape:snap-bbox="true"
     inkscape:snap-global="true"
     inkscape:window-width="1680"
     inkscape:window-height="988"
     inkscape:window-x="1358"
     inkscape:window-y="-8"
     inkscape:window-maximized="1"
     inkscape:showpageshadow="true"
     borderlayer="false"
     showguides="true"
     inkscape:guide-bbox="true"
     inkscape:bbox-paths="false"
     inkscape:snap-nodes="true"
     showborder="true">
    <inkscape:grid
       type="xygrid"
       id="grid3015"
       empspacing="8"
       visible="true"
       enabled="true"
       snapvisiblegridlinesonly="true"
       units="px" />
    <sodipodi:guide
       orientation="1,0"
       position="53,32"
       id="guide3039" />
    <sodipodi:guide
       orientation="1,0"
       position="11,21"
       id="guide3041" />
    <sodipodi:guide
       orientation="0,1"
       position="-3,10"
       id="guide3043" />
    <sodipodi:guide
       orientation="0,1"
       position="8,54"
       id="guide3045" />
  </sodipodi:namedview>
  <metadata
     id="metadata3001">
    <rdf:RDF>
      <cc:Work
         rdf:about="">
        <dc:format>image/svg+xml</dc:format>
        <dc:type
           rdf:resource="http://purl.org/dc/dcmitype/StillImage" />
        <dc:title></dc:title>
      </cc:Work>
    </rdf:RDF>
  </metadata>
  <g
     id="layer1"
     inkscape:label="Layer 1"
     inkscape:groupmode="layer">
    <path
       style="opacity:1;fill:#ffffff;fill-opacity:0.3019608;stroke:none"
       d="M 50 21 C 49.446 21 49 21.446 49 22 L 49 29.53125 L 49 34.46875 L 49 42 C 49 42.554 49.446 43 50 43 L 52 43 C 52.554 43 53 42.554 53 42 L 53 34.46875 L 53 29.53125 L 53 22 C 53 21.446 52.554 21 52 21 L 50 21 z M 36.375 21.1875 C 36.233304 21.18893 36.10226 21.229598 36.03125 21.3125 C 34.895096 22.638928 36.827974 26.373012 39.46875 30 L 24 30 L 12 30 C 11.446 30 11 30.446 11 31 L 11 33 C 11 33.554 11.446 34 12 34 L 24 34 L 39.46875 34 C 36.827974 37.626988 34.895096 41.361072 36.03125 42.6875 C 37.167405 44.013929 48 34.353553 48 32 C 48 29.793544 38.50044 21.166054 36.375 21.1875 z "
       id="rect4009" />
  </g>
</svg>
