<?xml version="1.0" encoding="UTF-8" standalone="no"?>
<!-- Created with Inkscape (http://www.inkscape.org/) -->

<svg
   xmlns:dc="http://purl.org/dc/elements/1.1/"
   xmlns:cc="http://creativecommons.org/ns#"
   xmlns:rdf="http://www.w3.org/1999/02/22-rdf-syntax-ns#"
   xmlns:svg="http://www.w3.org/2000/svg"
   xmlns="http://www.w3.org/2000/svg"
   xmlns:sodipodi="http://sodipodi.sourceforge.net/DTD/sodipodi-0.dtd"
   xmlns:inkscape="http://www.inkscape.org/namespaces/inkscape"
   width="64px"
   height="64px"
   id="svg2996"
   version="1.1"
   inkscape:version="0.91pre2 r13516"
   sodipodi:docname="ic_users.svg"
   inkscape:export-filename="C:\Users\sq\Desktop\goof\ic_users.png"
   inkscape:export-xdpi="90"
   inkscape:export-ydpi="90">
  <defs
     id="defs2998" />
  <sodipodi:namedview
     id="base"
     pagecolor="#1b1f22"
     bordercolor="#666666"
     borderopacity="1.0"
     inkscape:pageopacity="0"
     inkscape:pageshadow="2"
     inkscape:zoom="5.656854"
     inkscape:cx="52.486211"
     inkscape:cy="18.292928"
     inkscape:current-layer="layer1"
     showgrid="true"
     inkscape:document-units="px"
     inkscape:grid-bbox="true"
     inkscape:snap-bbox="true"
     inkscape:snap-global="false"
     inkscape:window-width="1680"
     inkscape:window-height="988"
     inkscape:window-x="1358"
     inkscape:window-y="-8"
     inkscape:window-maximized="1"
     inkscape:showpageshadow="true"
     borderlayer="false"
     showguides="true"
     inkscape:guide-bbox="true"
     inkscape:bbox-paths="false"
     inkscape:snap-nodes="false">
    <inkscape:grid
       type="xygrid"
       id="grid3015"
       empspacing="8"
       visible="true"
       enabled="true"
       snapvisiblegridlinesonly="true"
       units="px" />
    <sodipodi:guide
       orientation="1,0"
       position="53,32"
       id="guide3039" />
    <sodipodi:guide
       orientation="1,0"
       position="11,21"
       id="guide3041" />
    <sodipodi:guide
       orientation="0,1"
       position="-3,10"
       id="guide3043" />
    <sodipodi:guide
       orientation="0,1"
       position="8,54"
       id="guide3045" />
  </sodipodi:namedview>
  <metadata
     id="metadata3001">
    <rdf:RDF>
      <cc:Work
         rdf:about="">
        <dc:format>image/svg+xml</dc:format>
        <dc:type
           rdf:resource="http://purl.org/dc/dcmitype/StillImage" />
        <dc:title></dc:title>
      </cc:Work>
    </rdf:RDF>
  </metadata>
  <g
     id="layer1"
     inkscape:label="Layer 1"
     inkscape:groupmode="layer">
    <path
       style="opacity:1;fill:#ffffff;stroke:none;fill-opacity:0.80000001"
       d="m 17,16.59375 c -1.635298,0 -3.178409,0.456443 -4.5,1.21875 C 12.290475,17.509751 8.8839748,16.182334 8.3125,16.78125 7.7410297,17.380166 8.43536,21.757076 8.75,22 8.2696385,23.101174 8,24.315606 8,25.59375 c 0,3.854195 2.406901,7.15482 5.8125,8.4375 -2.017314,0.422064 -3.491588,1.241963 -4,2.375 C 9.0624994,38.077676 8,41.672325 8,43.34375 c 0,1.671427 5.249999,2.0625 9,2.0625 0.04878,0 0.106977,1.31e-4 0.15625,0 0.475762,-2.836616 1.539752,-5.898413 2.46875,-7.96875 0.534998,-1.192285 1.382066,-2.052286 2.375,-2.75 -0.0552,-0.04956 -0.101747,-0.105939 -0.15625,-0.15625 -0.49928,-0.194706 -1.05027,-0.373216 -1.65625,-0.5 C 20.466837,33.926041 20.734762,33.819053 21,33.6875 18.492985,30.998238 16.90625,27.447663 16.90625,23.5 c 0,-1.737461 0.369563,-3.369521 0.90625,-4.90625 -0.06474,-0.226354 -0.13207,-0.439774 -0.1875,-0.6875 C 17.536162,17.509232 17.476808,17.082718 17.40625,16.625 17.270263,16.618657 17.137442,16.59375 17,16.59375 z"
       id="path3019-4-5-5-8-7-4"
       inkscape:connector-curvature="0"
       sodipodi:nodetypes="scscscssscsccccscscs" />
    <path
       style="opacity:1;fill:#ffffff;stroke:none;fill-opacity:0.80000001"
       d="m 46.96875,16.5625 c -0.11585,0 -0.228868,0.02682 -0.34375,0.03125 -0.07052,0.458498 -0.129802,0.885589 -0.21875,1.28125 -0.06144,0.273323 -0.14467,0.531887 -0.21875,0.78125 0.525641,1.531253 0.90625,3.132819 0.90625,4.84375 0,3.963581 -1.600307,7.525651 -4.125,10.21875 0.263827,0.130545 0.534796,0.239156 0.8125,0.34375 -0.608168,0.127241 -1.155167,0.304591 -1.65625,0.5 -0.04371,0.04013 -0.08084,0.08535 -0.125,0.125 0.992934,0.697714 1.840002,1.557715 2.375,2.75 0.935643,2.085147 1.998026,5.177594 2.46875,8.03125 0.03948,8.4e-5 0.08584,0 0.125,0 C 50.732289,45.46875 56,45.083711 56,43.40625 56,41.728789 54.940209,38.114961 54.1875,36.4375 53.677253,35.300372 52.180848,34.486087 50.15625,34.0625 53.574147,32.775187 56,29.461859 56,25.59375 c 0,-1.291669 -0.261558,-2.513787 -0.75,-3.625 0.0093,-0.0016 0.02468,0.0053 0.03125,0 0.315776,-0.2438 1.011036,-4.617673 0.4375,-5.21875 -0.573537,-0.601079 -4.008467,0.696155 -4.21875,1 -0.0067,0.0094 -6.84e-4,0.04574 0,0.0625 -1.334028,-0.777258 -2.875998,-1.25 -4.53125,-1.25 z"
       id="path3019-4-5-5-5-4"
       inkscape:connector-curvature="0"
       sodipodi:nodetypes="scscsccccscssscsccsccs" />
    <path
       style="opacity:1;fill:#ffffff;stroke:none;fill-opacity:0.80000001"
       d="m 32,11 c -2.271247,0 -4.414458,0.628739 -6.25,1.6875 -0.291007,-0.420486 -5.018785,-2.269329 -5.8125,-1.4375 -0.793709,0.831826 0.188,6.912606 0.625,7.25 -0.667168,1.529408 -1.0625,3.224799 -1.0625,5 0,5.353046 3.363751,9.937256 8.09375,11.71875 C 24.791925,35.804948 22.706128,36.92634 22,38.5 c -1.041666,2.321427 -2.5,7.334819 -2.5,9.65625 0,1.967175 5.232656,2.619255 10,2.78125 -4.01e-4,0.02038 -1.54e-4,0.04208 0,0.0625 0.0138,1.833281 0.825913,3.388413 1.96875,4.53125 1.142837,1.142837 2.729167,1.8125 4.5625,1.8125 1.320782,0.01868 2.433709,-1.166467 2.279029,-2.509478 -0.151135,-1.312239 -1.250644,-1.316503 -2.3125,-1.79701 C 35.258325,52.702648 34.586473,52.028435 34.601563,50.929687 39.368907,50.767692 44.5,50.123425 44.5,48.15625 44.5,45.834819 43.041666,40.821427 42,38.5 41.293872,36.92634 39.208075,35.804948 36.40625,35.21875 41.136249,33.437256 44.5,28.853046 44.5,23.5 c 0,-1.787527 -0.386548,-3.493451 -1.0625,-5.03125 0.01301,-0.0019 0.02217,0.0072 0.03125,0 0.437,-0.337394 1.418711,-6.386924 0.625,-7.21875 -0.793713,-0.831829 -5.521492,0.954514 -5.8125,1.375 -0.0092,0.01315 -10e-4,0.07055 0,0.09375 C 36.435096,11.643101 34.290694,11 32,11 z"
       id="path3019-4-5"
       inkscape:connector-curvature="0"
       sodipodi:nodetypes="scscscssccscsscsscsccsccs" />
  </g>
</svg>
