<svg xmlns="http://www.w3.org/2000/svg" width="42" height="42">
  <g fill="none" stroke="#000" stroke-linecap="round" stroke-linejoin="round">
    <path style="font-variation-settings:normal" d="M29.46 24.71l1 .8m-5.79-3.05l1.18.38" stroke-width=".5"/>
    <path style="font-variation-settings:normal" d="M34.1 29.13l1.66-.57.64-1.46-.64-1.43-1.52-.68m-3.9 5.26l1.7.43 1.4-.52.7-1.23-.43-1.26-.84-.55M22 21.33l1.32-2.1-2.7-.15-.38-1.06 2.29-1.46-.2-1 2.24-.53 2.51.77.8-1.07 1.46 1.86 1-1.36 1.4 1.76 2.66-2.95.84 4.21V23l-2.8 4.6-2.25.53M16.8 18.8l5.1 2.65 1.74 3.86 6.23 2.38.59 1.63-.72 1.67-1.87.39-1.47-.48m-2.27-16l-1.59-1.78-.73 1-2.2-.71.33 1.37-7.68.36L9 14.8l.59 1.49-3.06.16.83 1.24-2.23 1.72 1.39.92-1.23 3.64.71 1.26.17 3.74 1.41.17 2.97 2.33 1-.64 4.07 1 .92-.95 3.62 1.02.8-.82 3.7.88 1.62-.84.53-1.9-1.03-1.6-3.49-.8-3.59.35-1.23-.61-3.9.04-.4-1.25-1.64-.49V23.1"/>
  </g>
</svg>
