<svg xmlns="http://www.w3.org/2000/svg" width="42" height="42">
  <path style="font-variation-settings:normal" d="M20.27 24.99l-.38 2.58.16 4.46-.2 1.41m-3.96-7.1l.62 2.62-.16 4.12m6.35-7.99l.7 2 .44 5.29 1.18 1.74 2.62.04.66-1.06-.17-1.4-1.01-1.05-.21-2.88.44-2.8-.56-2.98.34-.9-1.06-3.65 1.51-1.82-.85-6.34-1.92-2.76-1.8-1.71-1.56-1.05-.55 3.55-2.1-.85-.52 1.47-2.16-.87-.4 1.5-1.88-.4-2.46 1.1.92 1.27-2.02 1.95.93 1.33 3.05-.71-.42 3.73 1.53 1.08-.67 3.94.16 1.14-.64 1.45-1.92.95-1.3 4.83.15 1-1.74 1.7.36 1.34-.1 1.87 1.26.2 1.62 1.53 1.09-.75 2.53.78.65-.88 3.54.87.54-.82 3.61.83.93-.69.41-1.92-1.08-1.53-2.76-.77-1.89.53-1.23-.5-2.73.5-.92-.48-.29-.87" fill="none" stroke="#000" stroke-linecap="round" stroke-linejoin="round"/>
  <path style="font-variation-settings:normal" d="M23.74 12.7l1.26-.27m-7.98.38l1.14.16" fill="none" stroke="#000" stroke-width=".5" stroke-linecap="round" stroke-linejoin="round"/>
  <path style="font-variation-settings:normal" d="M18.13 15.68c1.2-1.19 5.08-1.98 8.32.55m-7.09-1.95l.88.71.97-.91.95.82.79-.91m4.24 2.86c3.32 2.85 6.3 6.67 14.2 5.14" fill="none" stroke="#000" stroke-width=".5" stroke-linejoin="round"/>
  <path d="M41.33 21.75a.28.25-11.15 01.26.07.28.25-11.15 01.05.25.28.25-11.15 01-.22.17l-.04-.25zm-18.58-7.92a.28.25-49.28 01.26-.1.28.25-49.28 01.18.16.28.25-49.28 01-.06.27l-.19-.17zm-3.54.65a.28.25 38.52 01-.1-.25.28.25 38.52 01.15-.2.28.25 38.52 01.26.06l-.15.2zm-.65 1.63l-1.24 1.2-.8-.83 1.24-1.2z"/>
</svg>
