<svg xmlns="http://www.w3.org/2000/svg" width="42" height="42">
  <g transform="translate(0 -22)">
    <path style="font-variation-settings:normal" d="M1.27 32.68c13.85 4.31 11.79-6.19 17.83-7.37 5.34-1.04 7.54 1.87 13.81-1.8m0 0c2.3-1.35 3.99-.74 6.2.18" fill="none" stroke="#000" stroke-width=".5" stroke-linejoin="round"/>
    <rect width="1.02" height="1.49" x="6.38" y="-46.68" transform="rotate(112.56)" ry="0"/>
    <path style="font-variation-settings:normal" d="M26.06 39.66l.14 1.69 1.05 2.25 2.42-1.53.8-1.43m2.49-4.41l.25-1.46-.4-1.86-1.43-1.97-3.62-.23-3.63 1.12-2.87 1.08-1.2 2.24-2.55 1.93 2.52.95 3.12-.79m-.89.33l-1 1.78.33.8-1.57 1.1-.04.91-3.18 2.34-2.86.8-.2 1.01-1.42 1.05.52.78-1.51 2.77-3.94 1.96.16 1.25-3.75 1.2.02.87-2.86 1.27-.39 2.32 1.15 1.64 2.3-.35 3.47-2.21 1.1-.08 2.82-3.35 1.17-.19 4.31-4.5m-.55.62l.35 2.36-1.8 1.22-1.62 4.97-1.52 1.61.57 1.75 1.7.2 1.48-1.48 2.27-4.31 5.1-2.02 1.2-6.48 2.9-1.17 2.66-1.7 1.02.57.61-2.6 1.09.55 1.97-5.6 2.65-2.9 1.65-3.67 1.55-1.2.59-.8-.19-1.56-1.04-.15-2.8 1.8-1.69 3.09-1.9 2.14M6.79 59.88l.63 1.91 1.45.2 1.74-1.23 1.16-2.83 2.78-1.73" fill="none" stroke="#000" stroke-linecap="round" stroke-linejoin="round"/>
    <path style="font-variation-settings:normal" d="M1.35 32.45s-.26-.1-.33.14c-.08.25.18.32.18.32" fill-opacity=".43"/>
  </g>
</svg>
