<svg width="64" height="64" xmlns="http://www.w3.org/2000/svg">
  <rect width="46" height="52.54" x="9" y="4" ry="11.85" fill="#faa"/>
  <rect width="46" height="53" x="9" y="7" ry="11.66" fill="#f66"/>
  <path d="M31 18.4a1 1 0 0 0-1 1v7.97c-3.63-2.64-7.18-4.44-8.6-3.5-1.42.93 5.22 8.42 8.6 11v4.25c-3.63-2.64-7.36-4.6-8.69-3.44C20 36.84 29.67 47.65 32 47.65c2.35 0 12.01-10.83 10.69-11.97-1.33-1.13-5.06.8-8.69 3.44v-4.25c3.62-2.73 9.76-10.02 8.69-10.94-1.33-1.13-5.06.8-8.69 3.44V19.4a1 1 0 0 0-1-1z" fill="#3e3e3e"/>
</svg>
