<svg xmlns="http://www.w3.org/2000/svg" width="64" height="64">
  <defs/>
  <path fill="none" stroke="#000" stroke-linecap="round" stroke-linejoin="round" stroke-width="4" d="M32 32.98c-4.4 3.42-8.31 5.87-8.31 10.76s4.17 8.38 8.3 8.34c4.15-.03 8.32-3.45 8.32-8.34 0-4.9-3.9-7.34-8.31-10.76z" style="font-variation-settings:normal"/>
  <path fill="none" stroke="#000" stroke-linecap="round" stroke-linejoin="round" stroke-width="4" d="M144 64c-9 7-17 12-17 22s8.53 17.13 17 17.06C152.46 103 161 96 161 86s-8-15-17-22z" opacity=".43" style="font-variation-settings:normal"/>
  <path d="M31 17c-.66 0-1 .24-1 1v14l2-1 2 1V18c-.04-.65-.22-1-1-1z" color="#000" font-family="sans-serif" font-weight="400" overflow="visible" style="line-height:normal;font-variant-ligatures:normal;font-variant-position:normal;font-variant-caps:normal;font-variant-numeric:normal;font-variant-alternates:normal;font-variant-east-asian:normal;font-feature-settings:normal;font-variation-settings:normal;text-indent:0;text-align:start;text-decoration-line:none;text-decoration-style:solid;text-decoration-color:#000;text-transform:none;text-orientation:mixed;white-space:normal;shape-padding:0;shape-margin:0;inline-size:0;isolation:auto;mix-blend-mode:normal;solid-color:#000;solid-opacity:1"/>
  <g aria-label="a b" font-family="Consolas" font-size="32" font-weight="700" style="line-height:1.25;-inkscape-font-specification:'Consolas Bold'">
    <path d="M22.74 32.01l-.1-2.07q-.5.53-1.05.98-.54.44-1.2.77-.65.32-1.44.5-.76.18-1.68.18-1.22 0-2.14-.36-.93-.36-1.55-1-.63-.64-.95-1.54-.32-.9-.32-2 0-1.13.47-2.08.49-.95 1.46-1.64.98-.69 2.43-1.08 1.47-.39 3.44-.39h2.08v-.95q0-.61-.17-1.1-.18-.5-.57-.84-.37-.34-.98-.53t-1.5-.19q-1.4 0-2.78.33-1.36.31-2.64.89v-3.05q1.14-.45 2.62-.75 1.5-.3 3.11-.3 1.77 0 3.03.35 1.27.33 2.08 1 .83.67 1.22 1.69.4 1 .4 2.34v10.84zM22.19 25h-2.33q-.97 0-1.64.19-.67.18-1.1.51-.42.33-.62.77-.19.42-.19.9 0 .97.63 1.49.62.5 1.7.5.8 0 1.66-.58.86-.58 1.89-1.66zM52.28 23.84q0 2.2-.62 3.78-.61 1.6-1.72 2.66-1.1 1.05-2.6 1.56-1.5.5-3.26.5-1.74 0-3.24-.26-1.48-.25-2.84-.69V9.99h3.81v5.18l-.15 3.13q.86-1.11 2-1.78 1.15-.68 2.76-.68 1.4 0 2.5.57 1.1.56 1.83 1.6.75 1.04 1.14 2.52.4 1.47.4 3.31zm-4 .16q0-1.31-.19-2.23-.18-.93-.54-1.52-.35-.6-.86-.86-.5-.28-1.16-.28-.97 0-1.86.78-.87.78-1.86 2.13v6.93q.46.17 1.11.28.67.11 1.36.11.9 0 1.64-.37.75-.38 1.27-1.06.53-.7.81-1.68.28-1 .28-2.23z" style="-inkscape-font-specification:'Consolas Bold'"/>
  </g>
</svg>
