<svg xmlns="http://www.w3.org/2000/svg" width="64" height="64">
  <path d="M32 10.22c-16 0-15 15-17 21s-4 6.59-4 10c0 1.03 1.23 1.96 3.69 2.74l.45-4.12 1.84-2.43 1.26-3.55 1.1 4.27-.9 2.67v.01l-.18 4.13c1.59.32 3.08.6 5.14.83.3 4.49 3.8 8.07 8.6 8.07 4.93 0 8.12-3.74 8.46-8.07C47.26 45 53 43.37 53 41.22c0-3.41-2-4-4-10s-1-21-17-21zm.5 4c1.17.03 2.32.16 3.44.46a8.45 8.45 0 015.54 4.22c2.45 4.33 2.3 9.49 3.91 14.1a30.06 30.06 0 002.35 5.23c.64 1.43.48 1.87-.93 2.25a64.3 64.3 0 01-22.6 1.27c-.83-.1-.97-.1-1.85-.23l.9-3.5-3.44-10.05c.61-3.2 1.18-6.78 3.14-9.77 1.75-2.83 5.22-3.94 8.4-3.97h1.15zm3.98 31.86c-.15 2.16-1.5 4.06-4.47 4.12-3.08.07-4.53-1.64-4.7-4.08 3.28.2 6.38.11 9.17-.04z" fill="#fff" opacity=".59"/>
</svg>
