<svg xmlns="http://www.w3.org/2000/svg" width="64" height="64">
  <path d="M32 10.44c-16 0-15 15-17 21s-4 6.59-4 10c0 1.12 2.01 2.16 4.6 2.94l.36-4.31 1.92-3.19.56-4.22 1.5 5.17-1.53 3.19h-.02l-.15 4.03a62 62 0 005.7.9 8.05 8.05 0 007.98 7.5c4.2 0 7.7-3.34 7.98-7.48 6.8-.75 13.1-2.37 13.1-4.53 0-3.41-2-4-4-10s-1-21-17-21zm.5 4c1.17.03 2.32.16 3.44.46a8.45 8.45 0 015.54 4.22c2.45 4.33 2.3 9.49 3.91 14.1a30.06 30.06 0 002.35 5.24c.64 1.42.48 1.86-.93 2.24a64.3 64.3 0 01-22.6 1.27c-.62-.08-1.44-.21-1.44-.21l1.13-3.92-3.65-11.76c.57-3.2 1.47-5.72 2.71-7.66 1.75-2.83 5.22-3.94 8.4-3.97h1.15zM27.93 46.3c1.4.08 2.78.14 4.08.14 1.23 0 2.53-.05 3.86-.12-.3 2.15-1.95 3.16-3.96 3.16-2.02 0-3.72-.85-3.98-3.18z" fill="#fff" opacity=".59"/>
</svg>
