<svg xmlns="http://www.w3.org/2000/svg" width="64" height="64">
  <g fill="#fff" fill-opacity=".8">
    <path d="M32 10c-16 0-15 15-17 21s-4 6.59-4 10c0 3 12.19 5 21 5s21-2 21-5c0-3.41-2-4-4-10s-1-21-17-21zm.5 4c1.17.03 2.32.16 3.44.46a8.45 8.45 0 015.54 4.22c2.45 4.33 2.3 9.49 3.91 14.1a30.06 30.06 0 002.35 5.23c.64 1.43.48 1.87-.93 2.25a64.31 64.31 0 01-22.6 1.27 46.56 46.56 0 01-7.62-1.43c-1-.28-.83-1.12-.54-1.68a31.37 31.37 0 003.46-8.88c.8-3.93 1.2-8.13 3.45-11.56 1.75-2.83 5.22-3.94 8.4-3.97h1.15zM26.06 48.47a5.98 5.98 0 0011.94 0c-2.03.16-4.07.25-5.97.25-1.9 0-3.93-.1-5.97-.25z"/>
  </g>
</svg>
