<svg xmlns="http://www.w3.org/2000/svg" width="64" height="64">
  <path d="M32 10.22c-16 0-15 15-17 21s-4 6.59-4 10c0 2.14 5.66 3.78 12.4 4.55.3 4.49 3.8 8.07 8.6 8.07 4.93 0 8.12-3.74 8.46-8.07C47.26 45 53 43.37 53 41.22c0-3.41-2-4-4-10s-1-21-17-21zm.5 4c1.17.03 2.32.16 3.44.46a8.45 8.45 0 015.54 4.22c2.45 4.33 2.3 9.49 3.91 14.1a30.06 30.06 0 002.35 5.23c.64 1.43.48 1.87-.93 2.25a64.3 64.3 0 01-22.6 1.27 46.55 46.55 0 01-7.62-1.43c-1-.28-.83-1.12-.54-1.68a31.37 31.37 0 003.46-8.88c.8-3.93 1.2-8.13 3.45-11.56 1.75-2.83 5.22-3.94 8.4-3.97h1.15zm3.98 31.86c-.15 2.16-1.51 4.06-4.47 4.12-3.08.07-4.53-1.64-4.7-4.08 3.28.2 6.38.11 9.17-.04z" fill="#fff" opacity=".61"/>
</svg>
