<svg xmlns="http://www.w3.org/2000/svg" xmlns:xlink="http://www.w3.org/1999/xlink" width="64" height="64">
  <defs/>
  <path id="a" fill="#000" fill-opacity="1" stroke-dasharray="none" stroke-miterlimit="4" stroke-width="1.03" d="M19.78 11.5c-.74-.01-1.3.1-1.56.33-.66.56.27 4.88 1.5 7.43a15.4 15.4 0 015.62-5.74 10.4 10.4 0 00-5.56-2.01z" opacity="1" style="line-height:normal;font-variant-ligatures:normal;font-variant-position:normal;font-variant-caps:normal;font-variant-numeric:normal;font-variant-alternates:normal;font-variant-east-asian:normal;font-feature-settings:normal;font-variation-settings:normal;text-indent:0;text-align:start;text-decoration-line:none;text-decoration-style:solid;text-decoration-color:#000;text-transform:none;text-orientation:mixed;white-space:normal;shape-padding:0;shape-margin:0;inline-size:0;isolation:auto;mix-blend-mode:normal;solid-color:#000;solid-opacity:1" text-decoration="none"/>
  <use width="100%" height="100%" transform="matrix(-.9927 .00617 .00617 .9927 63.74 -.04)" xlink:href="#a"/>
  <path fill="none" stroke="#000" stroke-linecap="round" stroke-linejoin="round" stroke-width="4" d="M39 35.18a11.88 11.88 0 005.01-9.7c-.02-7-6.03-11.99-12.03-11.97-6 .02-12 5.07-11.97 12.04a11.96 11.96 0 005.4 9.88c1.64 1.1 2.45 2.17 2.38 5.45-.1 4.26 1.18 7.54 3.39 9.27 1.66 1.3 5.18 2.28 7.27-.25 2.1-2.53-.02-5.6-.63-6.06-.97-.74-1.78-2-1.83-3.44-.1-2.7 1.06-3.9 3.01-5.22z" style="font-variation-settings:normal"/>
</svg>
