<svg xmlns="http://www.w3.org/2000/svg" xmlns:xlink="http://www.w3.org/1999/xlink" width="64" height="64">
  <defs/>
  <path style="line-height:normal;font-variant-ligatures:normal;font-variant-position:normal;font-variant-caps:normal;font-variant-numeric:normal;font-variant-alternates:normal;font-variant-east-asian:normal;font-feature-settings:normal;font-variation-settings:normal;text-indent:0;text-align:start;text-decoration-line:none;text-decoration-style:solid;text-decoration-color:#000;text-transform:none;text-orientation:mixed;white-space:normal;shape-padding:0;shape-margin:0;inline-size:0;isolation:auto;mix-blend-mode:normal;solid-color:#000;solid-opacity:1" id="a" fill="#000" fill-opacity="1" stroke-dasharray="none" stroke-miterlimit="4" stroke-width="1.03" d="M19.84 11c-.74-.03-1.3.09-1.56.31-.66.57.19 4.73 1.42 7.27a14.84 14.84 0 015.5-5.65 9.66 9.66 0 00-5.36-1.94z" text-decoration="none"/>
  <use width="100%" height="100%" transform="matrix(-.9927 .00617 .00617 .9927 63.82 -.04)" xlink:href="#a"/>
  <path fill="none" stroke="#000" stroke-linecap="round" stroke-linejoin="round" stroke-width="4" d="M39.02 34.67a11.88 11.88 0 005.02-9.7C44.02 17.96 38 12.97 32 13c-6 .02-12 5.06-11.96 12.04a11.96 11.96 0 005.38 9.88c1.65 1.1 2.46 2.17 2.4 5.45-.1 4.26 1.17 7.53 3.38 9.26 1.66 1.3 5.18 2.29 7.28-.24 2.1-2.53-.02-5.6-.64-6.07-.97-.73-1.78-1.99-1.83-3.43-.1-2.7 1.06-3.9 3.01-5.22z" style="font-variation-settings:normal"/>
</svg>
