<svg xmlns="http://www.w3.org/2000/svg" width="64" height="64">
  <path style="font-variation-settings:normal" d="M21.36 9.02c-.46.01-.83.1-1.06.26-.7.5.18 4.2 1.12 6.24 1.14-2.6 3.08-4.3 4.79-5.14a9.74 9.74 0 00-4.85-1.36zM42.67 9.04a9.88 9.88 0 00-4.85 1.38c1.94.98 3.7 2.7 4.78 5.16.93-2.05 1.83-5.78 1.13-6.28-.23-.16-.6-.24-1.06-.26zM12.36 16.35c-.46.02-.83.1-1.06.26-.68.48.07 4.13.97 6.2a10.33 10.33 0 014.86-5.03 9.95 9.95 0 00-4.77-1.43z"/>
  <path style="font-variation-settings:normal" d="M43 18.45a8.75 8.75 0 017.82 8c0 1.96.35 2.77.67 4.32.27 1.27.5 2.37.51 3.23.02 5.62-4 9-10 9M21 18.45a8.75 8.75 0 00-7.82 8c0 1.96-.35 2.77-.67 4.32-.27 1.27-.5 2.37-.51 3.23-.02 5.62 4 9 10 9m15.09 2.9C40.6 44.27 43 40.88 43 36c0-4.9-1.5-6-1.5-10 0-1 .5-2.9.5-5 0-.29.04-10-10-10s-10 9.73-10 10c0 1.72.49 4 .5 5 .03 4.47-1.49 5.14-1.5 10 0 4.95 2.53 8.38 6.11 9.98l.72.34c-.06 6.25 3.8 8.05 6.4 8.73 1.73.45 4.92-.14 5.3-3.04.4-2.9-1.37-4.26-3.03-4.57-.8-.15-.73-.02-.7-1.06z" fill="none" stroke="#000" stroke-width="4" stroke-linecap="round" stroke-linejoin="round"/>
  <path style="font-variation-settings:normal" d="M51.64 16.35c.46.02.83.1 1.06.26.68.48-.07 4.13-.97 6.2a10.33 10.33 0 00-4.86-5.03 9.95 9.95 0 014.77-1.43z"/>
</svg>
